<svg width="1440" height="319" viewBox="0 0 1440 319" fill="none" xmlns="http://www.w3.org/2000/svg">
<g style="mix-blend-mode:overlay">
<g style="mix-blend-mode:overlay">
<path d="M1440 296.642L1202.54 313.902L1181.29 319" stroke="#F0F1F1" stroke-opacity="0.2" stroke-width="0.599267" stroke-linecap="round" stroke-linejoin="round"/>
</g>
<g style="mix-blend-mode:overlay">
<path d="M1440 236.598L1252.03 254.022L998.094 273.692L819.493 307.502L753.272 319" stroke="#F0F1F1" stroke-opacity="0.2" stroke-width="0.599267" stroke-linecap="round" stroke-linejoin="round"/>
</g>
<g style="mix-blend-mode:overlay">
<path d="M1440 192.403L1290.02 209.13L1071.98 230.198L922.378 259.252L698.657 273.325L525.042 298.554L367.941 319" stroke="#F0F1F1" stroke-opacity="0.2" stroke-width="0.599267" stroke-linecap="round" stroke-linejoin="round"/>
</g>
<g style="mix-blend-mode:overlay">
<path d="M1440 106.886L1325.38 125.93L1308.12 128.797L1188.16 146.99L1170.71 149.637L1052.21 165.783L1029.32 168.902L911.657 183.192L888.854 185.963L750.333 200.561L618.994 212.328L495.703 221.19L384.713 227.151L347.849 229.786L282.665 234.446L247.828 236.414L179.98 240.242L77.618 244.29L4.65194 239.792L0 239.259" stroke="#F0F1F1" stroke-opacity="0.2" stroke-width="0.599267" stroke-linecap="round" stroke-linejoin="round"/>
</g>
<g style="mix-blend-mode:overlay">
<path d="M1440 158.18L1311.52 174.84L1124.94 196.321L937.59 215.016L755.974 230.303L582.882 241.917L424.554 249.677L282.532 253.666L160.906 254.213L59.2576 251.664L0 253.52" stroke="#F0F1F1" stroke-opacity="0.2" stroke-width="0.599267" stroke-linecap="round" stroke-linejoin="round"/>
</g>
<g style="mix-blend-mode:overlay">
<path d="M1440 130.413L1317.55 148.539L1156.42 169.967L994.26 189.149L832.84 205.708L678.099 219.143L531.787 229.291L399.116 236.08L280.791 239.619L179.98 240.242L95.9499 238.243L4.65194 239.792L0 239.784" stroke="#F0F1F1" stroke-opacity="0.2" stroke-width="0.599267" stroke-linecap="round" stroke-linejoin="round"/>
</g>
<g style="mix-blend-mode:overlay">
<path d="M1440 65.3713L1361.38 82.8557L1353.26 84.6626L1268.74 102.072L1256.5 104.591L1167.96 121.551L1156.41 123.763L1069.21 139.043L1051.95 142.072L964.17 156.193L947.018 158.953L866.336 170.623L841.06 174.278L765.031 184.163L738.27 187.642L676.929 194.592L638.306 198.971L588.847 203.807L567.195 205.925L544.953 208.099L486.551 213.415L485.239 213.531L463.834 215.481L435.77 217.617L383.581 221.591L379.043 221.936L372.26 222.337L338.412 224.343L290.742 227.166L202.184 231.061L114.168 233.381L53.5116 229.786L7.14439 224.598L0 223.252" stroke="#F0F1F1" stroke-opacity="0.2" stroke-width="0.599267" stroke-linecap="round" stroke-linejoin="round"/>
</g>
<g style="mix-blend-mode:overlay">
<path d="M1440 250.06L1368.72 270.569L1089.52 291.574L959.09 319" stroke="#F0F1F1" stroke-opacity="0.2" stroke-width="0.599267" stroke-linecap="round" stroke-linejoin="round"/>
</g>
<g style="mix-blend-mode:overlay">
<path d="M1440 95.8269L1361.35 110.264L1235.62 131.403L1123.8 148.58L1106.62 151.219L1067.4 156.632L997.599 166.263L974.539 169.442L867.183 182.672L844.19 185.506L745.785 196.032L716.209 199.196L595.468 210.214L482.432 218.506L382.763 224.021L380.936 224.122L342.836 226.611L286.071 230.326L250.939 232.092L190.777 235.117L95.9499 238.244L29.5479 234.21L0 230.844" stroke="#F0F1F1" stroke-opacity="0.2" stroke-width="0.599267" stroke-linecap="round" stroke-linejoin="round"/>
</g>
<g style="mix-blend-mode:overlay">
<path d="M1440 55.2461L1378.48 70.0351L1369.7 72.1494L1291.81 89.765L1283.99 91.5307L1204.71 108.127L1192.6 110.661L1110.06 126.754L1098.73 128.962L1018.78 143.223L1001.21 146.357L921.618 159.418L903.866 162.33L833.421 172.722L805.89 176.786L742.475 185.221L711.243 189.374L668.358 194.349L658.122 195.537L619.289 200.043L602.013 201.783L533.537 208.673L457.755 215.039L450.801 215.47L387.025 219.695L386.463 219.732L384.256 219.597L382.62 219.698L379.509 219.893L379.29 219.901L372.26 220.186L363.356 220.546L361.948 220.602L361.72 220.662L361.472 220.722L353.082 221.108L341.456 221.535L328.642 221.948L328.604 221.951L326.721 222.026L325.95 222.21L323.657 222.461L315.523 222.889L301.967 223.151L286.546 223.211L279.212 223.368L272.048 223.661L237.744 224.437L182.596 223.698L170.514 223.143L137.751 221.644L102.038 218.352L85.7042 216.962L53.2738 214.195L9.52268 208.988L0 207.511" stroke="#F0F1F1" stroke-opacity="0.2" stroke-width="0.599267" stroke-linecap="round" stroke-linejoin="round"/>
</g>
<g style="mix-blend-mode:overlay">
<path d="M1310.86 60.9702L1251.26 77.345L1246.44 78.6645L1193.95 92.0965L1177.21 96.3776L1127.82 108.314L1106.02 113.581L1043.02 127.643L1030.96 130.334L966.957 143.702L955.256 146.143L899.633 156.756L885.106 159.526L877.277 161.022L832.764 168.868L829.359 169.472L800.401 174.577" stroke="#F0F1F1" stroke-opacity="0.2" stroke-width="0.599267" stroke-linecap="round" stroke-linejoin="round"/>
</g>
<g style="mix-blend-mode:overlay">
<path d="M378.691 220.545L363.432 221.123L359.16 221.434L352.501 221.925L332.742 222.622L315.523 222.888L302.766 223.421L279.269 224.148L276.7 224.227L260.204 224.737L225.928 225.794L149.652 226.753L76.4479 226.409L7.14439 224.598L0 224.26" stroke="#F0F1F1" stroke-opacity="0.2" stroke-width="0.599267" stroke-linecap="round" stroke-linejoin="round"/>
</g>
<g style="mix-blend-mode:overlay">
<path d="M1440 34.0615L1378.23 51.4559L1315.18 68.3443L1310.06 69.7163L1236.53 88.0892L1167.6 104.333L1160.43 106.02L1091.92 120.944L1079.95 123.553L1046.11 134.436L1001.21 146.357L947.018 158.953L880.692 172.193L804.406 185.674L716.209 199.196L618.994 212.328L512.056 224.751L399.116 236.08L362.842 239.109L280.667 245.97L160.906 254.213L40.9637 260.549L0 257.996" stroke="#F0F1F1" stroke-opacity="0.2" stroke-width="0.599267" stroke-linecap="round" stroke-linejoin="round"/>
</g>
<g style="mix-blend-mode:overlay">
<path d="M1248.08 70.7024L1192.03 86.5411L1187.58 87.8044L1138.38 100.741L1122.73 104.858L1077.18 116.179L1063 119.707L1056.42 121.341L1009.16 132.175L989.684 136.64L986.621 137.341L949.444 145.326L918.469 151.976L916.509 152.4L881.681 159.088L873.785 160.55" stroke="#F0F1F1" stroke-opacity="0.2" stroke-width="0.599267" stroke-linecap="round" stroke-linejoin="round"/>
</g>
<g style="mix-blend-mode:overlay">
<path d="M1440 44.8318L1378.35 60.9928L1319.33 75.437L1300.69 79.9992L1227.23 96.9363L1219.74 98.6607L1145.8 114.428L1133.78 116.992L1057.32 132.205L1046.11 134.436L973.559 147.635L955.37 150.949L884.402 162.851L865.29 166.057L806.87 174.87L792.314 177.067L789.261 177.524L774.829 179.702L730.317 185.772L726.093 186.349L687.698 191.582L678.851 192.636" stroke="#F0F1F1" stroke-opacity="0.2" stroke-width="0.599267" stroke-linecap="round" stroke-linejoin="round"/>
</g>
<g style="mix-blend-mode:overlay">
<path d="M1440 264.129L1368.72 270.569L1202.54 313.901L1112.37 319" stroke="#F0F1F1" stroke-opacity="0.2" stroke-width="0.599267" stroke-linecap="round" stroke-linejoin="round"/>
</g>
<g style="mix-blend-mode:overlay">
<path d="M1440 107.114L1386.9 126.818L1240.83 148.703L1112.6 165.963L1089.78 169.037L938.732 187.136L789.089 202.69L646.43 215.267L512.056 224.751L390.678 231.106L282.665 234.446L190.777 235.117L114.168 233.381L29.5479 234.21L0 233.921" stroke="#F0F1F1" stroke-opacity="0.2" stroke-width="0.599267" stroke-linecap="round" stroke-linejoin="round"/>
</g>
<g style="mix-blend-mode:overlay">
<path d="M309.454 222.723L301.216 222.922L286.546 223.211L279.212 223.368L271.963 223.619L258.53 223.938L237.744 224.437L166.557 224.819L98.2426 223.979L33.61 221.756L0 219.859" stroke="#F0F1F1" stroke-opacity="0.2" stroke-width="0.599267" stroke-linecap="round" stroke-linejoin="round"/>
</g>
<g style="mix-blend-mode:overlay">
<path d="M249.122 223.844L242.881 223.833L182.596 223.698L180.484 223.657L118.734 222.416L58.3253 219.826L2.86346 216.171L0 215.897" stroke="#F0F1F1" stroke-opacity="0.2" stroke-width="0.599267" stroke-linecap="round" stroke-linejoin="round"/>
</g>
<g style="mix-blend-mode:overlay">
<path d="M1187.89 74.4622L1136.77 90.7132L1104.12 100.606L1087.94 105.513L1084.24 106.634L1053.97 115.122L1035.47 120.314L1028.03 122.398L990.169 132.434L977.327 135.837L970.905 137.536L935.83 146.06L934.317 146.428L914.578 151.223L910.734 152.156L902.039 154.132" stroke="#F0F1F1" stroke-opacity="0.2" stroke-width="0.599267" stroke-linecap="round" stroke-linejoin="round"/>
</g>
<g style="mix-blend-mode:overlay">
<path d="M140.671 50.9124L75.9912 51.5646L35.8742 52.3856L17.8087 52.7568L1.54113 53.2703L0 53.499" stroke="#F0F1F1" stroke-opacity="0.2" stroke-width="0.599267" stroke-linecap="round" stroke-linejoin="round"/>
</g>
<g style="mix-blend-mode:overlay">
<path d="M1135.88 85.2776L1093.12 99.4368L1088.39 101.004L1071.08 106.462L1051.61 112.603L1042.96 115.328L1039.7 116.359L1016.16 123.193L995.002 129.337L987.487 131.523L956.778 139.928L953.896 140.715L942.252 143.905L934.413 146.049L921.503 149.273" stroke="#F0F1F1" stroke-opacity="0.2" stroke-width="0.599267" stroke-linecap="round" stroke-linejoin="round"/>
</g>
<g style="mix-blend-mode:overlay">
<path d="M1440 204.152L1390.91 218.412L1154.75 240.793L922.378 259.252L752.996 288.665L567.509 317.92L517.07 319" stroke="#F0F1F1" stroke-opacity="0.2" stroke-width="0.599267" stroke-linecap="round" stroke-linejoin="round"/>
</g>
<g style="mix-blend-mode:overlay">
<path d="M197.532 223.327L190.539 223.132L169.924 222.551L137.751 221.644L81.1664 218.72L29.215 214.798L0 211.657" stroke="#F0F1F1" stroke-opacity="0.2" stroke-width="0.599267" stroke-linecap="round" stroke-linejoin="round"/>
</g>
<g style="mix-blend-mode:overlay">
<path d="M198.54 50.4287L139.929 50.5262L87.2643 51.186" stroke="#F0F1F1" stroke-opacity="0.2" stroke-width="0.599267" stroke-linecap="round" stroke-linejoin="round"/>
</g>
<g style="mix-blend-mode:overlay">
<path d="M1088.88 96.2991L1049.18 110.027L1044.87 111.515L1029.79 116.464L1010.29 122.863L1002.43 125.442L999.692 126.338L970.41 135.133L969.022 135.549L960.231 138.192L951.061 140.943" stroke="#F0F1F1" stroke-opacity="0.2" stroke-width="0.599267" stroke-linecap="round" stroke-linejoin="round"/>
</g>
<g style="mix-blend-mode:overlay">
<path d="M1440 118.098L1386.9 126.818L1317.55 148.539L1229.98 171.845L1124.94 196.321L1000.36 221.734L858.431 247.533L698.657 273.325L491.375 282.674L303.794 287.334L141.556 287.608L4.9849 283.93L0 284.204" stroke="#F0F1F1" stroke-opacity="0.2" stroke-width="0.599267" stroke-linecap="round" stroke-linejoin="round"/>
</g>
<g style="mix-blend-mode:overlay">
<path d="M1046.86 107.561L1022.69 116.28L1009.93 120.888L1006 122.305L975.662 132.243L970.487 133.637L962.229 136.655" stroke="#F0F1F1" stroke-opacity="0.2" stroke-width="0.599267" stroke-linecap="round" stroke-linejoin="round"/>
</g>
<g style="mix-blend-mode:overlay">
<path d="M1428.18 0L1388.28 14.8002L1343.89 30.7889L1295.32 47.3023L1244.79 63.8345L1190 80.6179L1147.95 92.9027L1133.49 97.1238L1087.51 109.6L1073.04 113.525L1031.28 124.235L1011.46 129.315L969.193 139.29L960.869 141.255L948.73 144.119L946.675 144.606L919.667 150.57L906.834 153.408L890.462 157.022L881.71 158.956L873.509 160.61L841.06 167.121L796.158 175.249L743.635 183.571L678.851 192.636L603.031 201.659L533.537 208.673L453.274 215.267L387.262 219.406L387.082 219.417L386.958 219.425L386.901 219.432L386.463 219.732L378.691 220.545L363.46 221.348L359.16 221.434L341.561 221.794L328.728 222.229L325.95 222.21L315.267 222.491L309.454 222.723L301.967 223.151L272.048 223.661L257.284 223.694L249.121 223.844L242.824 223.784L228.506 223.638L214.874 223.503L209.585 223.451L204.505 223.398L202.126 223.312L190.349 222.956L179.39 222.581L172.712 222.307L172.198 222.289L169.506 222.127L167.394 221.974L155.093 221.584L150.746 221.254L145.904 220.722L142.384 220.171L140.129 220.009L139.701 219.979L136.714 219.619L134.44 219.035L130.701 218.412L129.779 218.259L129.265 218.105L127.381 217.831L125.621 217.76L123.491 217.805L116.841 217.336L94.247 214.937L82.3365 213.235L55.5759 209.408L47.2234 207.882L21.8137 203.237L16.277 197.187L15.9726 191.08L20.4818 184.827L11.0162 176.846L6.28818 168.707L5.31783 160.662L8.17179 152.692L13.6989 144.981L21.8232 137.51L31.3839 130.409L42.2004 123.639L53.1881 117.292L64.1663 111.321L74.1361 105.772L82.8883 100.61L89.576 95.8567L93.9711 91.4819L137.075 87.5869L177.858 84.153L216.253 81.1239L252.251 78.4511L285.947 76.0706L317.131 73.96L346.042 72.0556L372.26 70.3499L396.119 68.7904L416.962 67.3734L435.19 66.05L449.907 64.8354L461.57 63.6808L469.047 62.6086L473.67 61.3603L485.048 62.7398L493.62 64.1794L500.964 66.4174L502.629 66.4924L505.15 67.7482L507.556 69.8963L508.765 71.2421L506.139 73.7501L504.56 74.5635L500.869 76.333L500.26 76.5204L498.376 77.2102L492.259 79.0209L489.129 79.9281L481.585 81.8025L478.246 82.6235L470.617 84.3367L465.508 85.4238L453.817 87.3507L436.493 89.3825L416.449 91.9355L393.988 94.6683L370.053 97.5662L344.672 100.659L318.501 103.932L291.607 107.407L264.4 111.069L237.002 114.942L209.547 119.017L182.291 123.305L155.122 127.826L128.447 132.576L102.029 137.603L76.4383 142.882L51.4187 148.497L27.7594 154.39L24.2015 162.424L24.5154 170.51L28.549 178.679L37.2345 186.671L34.3901 192.684L36.1881 198.48L42.8568 204.163L55.5759 209.408L74.9733 214.274L102.038 218.352L131.567 220.152L145.523 220.583L146.179 220.216L146.379 220.339L150.498 220.74L152.981 220.838L160.012 221.366L167.651 222.015L169.506 222.127L170.419 222.146L170.448 222.15L179.276 222.472L190.349 222.956L197.532 223.327L202.193 223.376L204.505 223.398" stroke="#F0F1F1" stroke-opacity="0.2" stroke-width="0.599267" stroke-linecap="round" stroke-linejoin="round"/>
</g>
<g style="mix-blend-mode:overlay">
<path d="M1298.63 23.325L1261.05 38.59L1222.18 53.9451L1179.69 69.6713L1135.88 85.2775L1136.77 90.7133L1133.49 97.1237L1122.73 104.858L1106.02 113.581L1079.95 123.553L1009.63 137.866L998.36 140.164L955.37 150.949L903.866 162.33L841.06 174.278L769.207 186.401L686.385 198.514L595.468 210.214L495.703 221.19L390.678 231.106L354.318 233.921L280.791 239.619L245.801 241.809L169.972 246.554L59.2576 251.664L0 247.983" stroke="#F0F1F1" stroke-opacity="0.2" stroke-width="0.599267" stroke-linecap="round" stroke-linejoin="round"/>
</g>
<g style="mix-blend-mode:overlay">
<path d="M184.946 50.1177L133.042 50.4476" stroke="#F0F1F1" stroke-opacity="0.2" stroke-width="0.599267" stroke-linecap="round" stroke-linejoin="round"/>
</g>
<g style="mix-blend-mode:overlay">
<path d="M1239.32 35.8462L1204.52 50.8264L1168.64 65.8328L1129.36 81.1504L1088.88 96.2993L1088.39 101.004L1084.24 106.635L1073.04 113.525L1056.42 121.341L1030.96 130.335L998.36 140.164L933.652 152.205L914.169 155.834L853.275 166.297L842.354 168.175L833.497 169.697L830.938 170.136L790.802 176.336L786.388 177.018L747.441 183.035L743.635 183.571" stroke="#F0F1F1" stroke-opacity="0.2" stroke-width="0.599267" stroke-linecap="round" stroke-linejoin="round"/>
</g>
<g style="mix-blend-mode:overlay">
<path d="M1440 213.041L1390.91 218.413L1252.03 254.022L1089.52 291.574L819.493 307.503L567.508 317.921L559.965 319" stroke="#F0F1F1" stroke-opacity="0.2" stroke-width="0.599267" stroke-linecap="round" stroke-linejoin="round"/>
</g>
<g style="mix-blend-mode:overlay">
<path d="M1440 136.494L1401.74 149.281L1229.98 171.845L1056.03 192.149L882.1 209.753L714.42 224.092L555.246 234.956L483.012 238.574L410.294 242.214L280.667 245.97L169.972 246.555L77.618 244.291L0 246.161" stroke="#F0F1F1" stroke-opacity="0.2" stroke-width="0.599267" stroke-linecap="round" stroke-linejoin="round"/>
</g>
<g style="mix-blend-mode:overlay">
<path d="M0 55.1108L49.0214 54.2749L106.357 53.96L155.655 54.2711L196.913 55.1446L231.522 56.4454L259.367 58.1399L281.542 60.1417L297.953 62.436L309.511 64.9664L316.151 67.7443L318.691 70.7358L317.131 73.9598L312.184 77.4012L303.946 81.0975L293.063 85.0375L279.706 89.2624L264.466 93.7722L247.609 98.5969L215.949 101.892L183.224 105.483L149.357 109.408L114.586 113.701L78.712 118.439L42.2004 123.639L4.85172 129.408L0 133.569" stroke="#F0F1F1" stroke-opacity="0.2" stroke-width="0.599267" stroke-linecap="round" stroke-linejoin="round"/>
</g>
<g style="mix-blend-mode:overlay">
<path d="M1009.24 117.101L990.502 125.161L986.488 126.518L982.949 127.793" stroke="#F0F1F1" stroke-opacity="0.2" stroke-width="0.599267" stroke-linecap="round" stroke-linejoin="round"/>
</g>
<g style="mix-blend-mode:overlay">
<path d="M1440 167.77L1402.63 179.17L1202.3 201.888L1000.36 221.734L803.568 238.019L615.312 250.416L442.344 258.693L286.699 262.922L152.981 263.417L40.9637 260.549L0 262.138" stroke="#F0F1F1" stroke-opacity="0.2" stroke-width="0.599267" stroke-linecap="round" stroke-linejoin="round"/>
</g>
<g style="mix-blend-mode:overlay">
<path d="M293.234 51.3772L251.433 50.545L248.132 50.4813L231.674 50.3763L194.773 50.1401L169.696 50.2638" stroke="#F0F1F1" stroke-opacity="0.2" stroke-width="0.599267" stroke-linecap="round" stroke-linejoin="round"/>
</g>
<g style="mix-blend-mode:overlay">
<path d="M1440 85.4163L1400.04 93.4237L1287.53 114.349L1186.09 131.616L1168.94 134.537L1065.15 150.702L1059.23 151.624L1048.15 153.348L948.502 167.29L925.09 170.566L827.922 182.731L804.406 185.674L717.484 195.132L686.385 198.514L575.519 208.838L471.93 216.62L383.543 221.681L379.043 221.936L364.317 222.461L316.351 224.174L296.412 224.883L258.112 226.322L213.98 227.979L132.119 229.58L53.5116 229.786L0 228.826" stroke="#F0F1F1" stroke-opacity="0.2" stroke-width="0.599267" stroke-linecap="round" stroke-linejoin="round"/>
</g>
<g style="mix-blend-mode:overlay">
<path d="M1440 143.688L1401.74 149.281L1311.52 174.84L1202.3 201.888L1071.98 230.199L858.431 247.533L653.441 260.751L464.291 269.561L293.577 274.018L146.408 274.431L22.8316 271.199L0 272.26" stroke="#F0F1F1" stroke-opacity="0.2" stroke-width="0.599267" stroke-linecap="round" stroke-linejoin="round"/>
</g>
<g style="mix-blend-mode:overlay">
<path d="M1440 174.394L1402.63 179.17L1290.02 209.13L1154.75 240.793L998.094 273.692L752.996 288.665L525.042 298.554L318.311 303.368L172.35 319" stroke="#F0F1F1" stroke-opacity="0.2" stroke-width="0.599267" stroke-linecap="round" stroke-linejoin="round"/>
</g>
<g style="mix-blend-mode:overlay">
<path d="M1389.74 0L1362.59 11.0515L1322.45 26.5715L1280.71 42.2564L1235.1 58.3912L1187.89 74.4623L1190 80.6179L1187.58 87.8043L1177.21 96.3778L1160.43 106.02L1133.78 116.992L1098.73 128.962L1051.95 142.072L995.031 155.946L925.09 170.566L844.19 185.505L750.333 200.561L646.43 215.267L531.787 229.291L451.229 237.861L410.294 242.213L282.532 253.666L152.981 263.417L22.8316 271.199L0 269.771" stroke="#F0F1F1" stroke-opacity="0.2" stroke-width="0.599267" stroke-linecap="round" stroke-linejoin="round"/>
</g>
<g style="mix-blend-mode:overlay">
<path d="M1440 9.62695L1411.38 19.565L1360.12 36.4233L1306.43 53.3979L1248.08 70.7023L1246.44 78.6648L1236.53 88.0892L1219.74 98.6609L1192.6 110.661L1156.41 123.763L1107.79 138.113L1057.96 150.844L1048.15 153.348L974.539 169.442L888.854 185.963L789.089 202.69L678.099 219.143L555.246 234.956L516.48 239.323L424.554 249.677L286.699 262.922L146.408 274.431L4.9849 283.93L0 283.619" stroke="#F0F1F1" stroke-opacity="0.2" stroke-width="0.599267" stroke-linecap="round" stroke-linejoin="round"/>
</g>
<g style="mix-blend-mode:overlay">
<path d="M286.071 69.6414L252.993 71.8007L217.262 74.2449L178.695 77.0377L137.418 80.2242L93.4004 83.8718L46.586 88.0442L0 92.5315" stroke="#F0F1F1" stroke-opacity="0.2" stroke-width="0.599267" stroke-linecap="round" stroke-linejoin="round"/>
</g>
<g style="mix-blend-mode:overlay">
<path d="M0 62.9011L33.3817 63.0061L71.834 63.7633L103.751 64.9967L129.198 66.6912L149.1 68.7567L163.608 71.1935L173.387 73.9526L178.695 77.0378L180.065 80.4342L177.858 84.153L172.493 88.1942L164.473 92.5728L154.132 97.3038L115.052 101.289L74.1362 105.772L31.7455 110.788L0 114.859" stroke="#F0F1F1" stroke-opacity="0.2" stroke-width="0.599267" stroke-linecap="round" stroke-linejoin="round"/>
</g>
<g style="mix-blend-mode:overlay">
<path d="M867.107 22.7889L857.546 20.7308L838.786 16.6934L809.096 11.3064L791.297 5.59695L783.762 0" stroke="#F0F1F1" stroke-opacity="0.2" stroke-width="0.599267" stroke-linecap="round" stroke-linejoin="round"/>
</g>
<g style="mix-blend-mode:overlay">
<path d="M0 66.3762L30.2995 66.8786L62.0164 68.0744L87.6639 69.7201L107.47 71.7932L122.121 74.2449L131.929 77.064L137.418 80.2243L139.007 83.7331L137.075 87.5869L132.167 91.7893L89.5761 95.8567L47.5944 100.187L44.9878 100.457L39.1277 105.424L0 110.091" stroke="#F0F1F1" stroke-opacity="0.2" stroke-width="0.599267" stroke-linecap="round" stroke-linejoin="round"/>
</g>
<g style="mix-blend-mode:overlay">
<path d="M1352.62 0L1332.85 8.63348L1301.67 7.08522L1267.57 6.73659L1233.1 7.11521L1196.98 8.54351L1179.55 21.0157L1159.98 34.0728L1139.94 47.2836L1117.39 60.9854L1094.03 74.7397L1067.71 88.8502L1040.18 102.886L1009.24 117.101L1009.61 119.125L1006 122.304L999.692 126.338L987.487 131.523L970.905 137.536L946.675 144.606L916.509 152.4L877.277 161.022L830.938 170.135L774.829 179.702L711.243 189.374L638.306 198.971L558.804 208.148L471.93 216.62L382.782 223.968L380.936 224.122L290.742 227.166L213.98 227.979L149.652 226.753L98.2426 223.979L58.3253 219.826L29.215 214.798L9.52268 208.988L0 203.908" stroke="#F0F1F1" stroke-opacity="0.2" stroke-width="0.599267" stroke-linecap="round" stroke-linejoin="round"/>
</g>
<g style="mix-blend-mode:overlay">
<path d="M1440 67.5945L1427.59 78.1174L1337.95 96.3178L1325.6 98.8257L1231.14 116.64L1219.29 118.874L1124.95 135.155L1107.79 138.113L1051.66 146.99L1011.99 153.266L995.031 155.946L904.76 168.774L880.692 172.193L793.808 183.267L769.207 186.401L694.272 194.712L660.538 198.45L594.126 204.782L558.804 208.148L473.366 214.746L463.834 215.481L387.015 220.047" stroke="#F0F1F1" stroke-opacity="0.2" stroke-width="0.599267" stroke-linecap="round" stroke-linejoin="round"/>
</g>
<g style="mix-blend-mode:overlay">
<path d="M1173.24 0L1161.7 10.5566L1147.28 22.7402L1132.6 35.13L1104.92 37.1393L1092.94 49.4691L1078.78 62.3162L1064.59 74.601L1063.8 75.2871L1047.5 87.6056L1046.07 88.6815L1027.87 101.461L1026.95 102.102L1005.95 114.908L1004.47 115.812L1001.64 116.501L997.856 118.863L997.152 119.302" stroke="#F0F1F1" stroke-opacity="0.2" stroke-width="0.599267" stroke-linecap="round" stroke-linejoin="round"/>
</g>
<g style="mix-blend-mode:overlay">
<path d="M393.494 55.4671L366.638 53.439L364.269 53.0792L363.308 52.9705L356.268 52.5956L336.158 52.0258L326.235 51.6621L294.033 51.1823L290.865 51.9995L282.96 52.8242L243.338 51.6696L195.895 51.0061L140.671 50.9124L139.929 50.5262L133.042 50.4475L87.2644 51.186L72.8519 51.7371L63.9761 53.0229L49.0214 54.275L27.8546 55.932L1.64578 57.9563L0 58.0838" stroke="#F0F1F1" stroke-opacity="0.2" stroke-width="0.599267" stroke-linecap="round" stroke-linejoin="round"/>
</g>
<g style="mix-blend-mode:overlay">
<path d="M0 56.4006L27.8546 55.932L84.2392 55.5946L106.357 53.9602L123.595 52.6256L134.849 51.6284L187.933 51.8234L232.673 52.5994L270.498 53.8177L301.301 55.4297L326.245 57.3378L345.148 59.5234L359.046 61.9264L367.751 64.5468L372.203 67.3509L372.26 70.3499L368.797 73.5289L341.533 75.3733L312.184 77.4014L280.486 79.6657L246.705 82.1811L210.688 85.0114L172.493 88.1942L132.167 91.7893L124.604 96.3553L115.052 101.289L103.779 106.62L91.5929 112.325L78.712 118.439L66.0785 124.929L53.8826 131.819L43.1803 139.032L13.699 144.981L0 148.051" stroke="#F0F1F1" stroke-opacity="0.2" stroke-width="0.599267" stroke-linecap="round" stroke-linejoin="round"/>
</g>
<g style="mix-blend-mode:overlay">
<path d="M954.695 0L931.33 5.73566L913.978 11.8087L904.579 18.0017L903.885 24.1685L911.847 30.5602L926.536 35.4074L935.735 38.4402L948.587 43.2761L954.457 45.4841L957.425 46.4926L958.548 46.9687L958.671 47.0361" stroke="#F0F1F1" stroke-opacity="0.2" stroke-width="0.599267" stroke-linecap="round" stroke-linejoin="round"/>
</g>
<g style="mix-blend-mode:overlay">
<path d="M897.15 29.1844L894.695 28.4646L890.88 27.0738L875.05 22.7327L864.224 20.2697L847.548 16.4685L819.589 10.7291L810.152 4.8397L784.609 0" stroke="#F0F1F1" stroke-opacity="0.2" stroke-width="0.599267" stroke-linecap="round" stroke-linejoin="round"/>
</g>
<g style="mix-blend-mode:overlay">
<path d="M1162.12 0L1136.1 2.14806L1098.7 6.05805L1064.46 10.2829L1033.07 15.0777L1006.61 20.0523L985.032 25.4431L969.935 30.9463L961.373 36.8169L960.27 42.8562L972.199 49.724L976.813 52.3744L985.946 58.8711L992.719 63.4596L995.659 65.2403" stroke="#F0F1F1" stroke-opacity="0.2" stroke-width="0.599267" stroke-linecap="round" stroke-linejoin="round"/>
</g>
<g style="mix-blend-mode:overlay">
<path d="M317.54 112.929L293.748 117.229L269.156 121.821L249.16 127.081L230.266 132.498L224.368 133.907L206.807 138.091L184.308 143.935L162.808 150.035L143.297 156.288L125.583 162.717L110.705 169.168L98.2901 175.699L89.3858 182.102L83.5067 188.471L81.6896 194.551" stroke="#F0F1F1" stroke-opacity="0.2" stroke-width="0.599267" stroke-linecap="round" stroke-linejoin="round"/>
</g>
<g style="mix-blend-mode:overlay">
<path d="M338.346 108.524L314.61 112.505L289.8 116.753L269.156 121.821L244.184 126.694L219.536 131.826L201.08 137.813L178.343 143.538L156.73 149.495L137.151 155.575L125.583 162.717L116.803 169.839L110.22 176.988L106.624 183.95L105.216 190.799L106.662 197.292L110.01 203.545L115.766 209.284L122.91 214.682L129.113 218.026" stroke="#F0F1F1" stroke-opacity="0.2" stroke-width="0.599267" stroke-linecap="round" stroke-linejoin="round"/>
</g>
<g style="mix-blend-mode:overlay">
<path d="M954.048 45.3491L948.587 43.276L935.735 38.44L925.623 31.9846L919.563 29.8028L903.885 24.1684L881.415 17.0157L858.431 10.3616L834.848 4.3335" stroke="#F0F1F1" stroke-opacity="0.2" stroke-width="0.599267" stroke-linecap="round" stroke-linejoin="round"/>
</g>
<g style="mix-blend-mode:overlay">
<path d="M359.113 104.318L335.691 107.976L310.929 111.894L289.8 116.752L264.485 121.266L239.019 126.042L219.536 131.826L195.353 137.21L172.426 142.788L156.73 149.494L143.297 156.287L131.738 163.189L122.863 170.038L116.061 176.876L112.094 183.496L110.153 189.974L110.905 196.069L113.397 201.891L118.144 207.196L124.185 212.118L131.9 216.429L138.027 219.214" stroke="#F0F1F1" stroke-opacity="0.2" stroke-width="0.599267" stroke-linecap="round" stroke-linejoin="round"/>
</g>
<g style="mix-blend-mode:overlay">
<path d="M1298.63 23.325L1322.45 26.5714L1343.89 30.7888L1360.12 36.4232L1372.58 43.1711L1378.23 51.4559L1378.35 60.9929L1369.7 72.1493L1353.26 84.6627L1325.6 98.8257L1287.53 114.349L1235.62 131.403L1170.71 149.637L1089.78 169.037L994.26 189.149L882.1 209.753L755.974 230.303L615.312 250.416L464.291 269.561L303.794 287.334L138.949 303.42L0 315.135" stroke="#F0F1F1" stroke-opacity="0.2" stroke-width="0.599267" stroke-linecap="round" stroke-linejoin="round"/>
</g>
<g style="mix-blend-mode:overlay">
<path d="M291.008 161.071L267.434 158.263L265.865 157.94L261.022 157.794L243.899 156.816L238.866 156.636L223.607 155.89L211.992 155.279L208.3 155.264L190.577 154.743L182.948 154.522L178.715 154.36" stroke="#F0F1F1" stroke-opacity="0.2" stroke-width="0.599267" stroke-linecap="round" stroke-linejoin="round"/>
</g>
<g style="mix-blend-mode:overlay">
<path d="M1208.98 0L1196.98 8.54351L1161.7 10.5566L1126.35 13.4507L1116.5 25.0007L1104.92 37.1393L1079.41 39.6548L1070.52 51.7784L1060.97 64.0932L1049.05 76.9028L1036.68 89.0564L1035.89 89.8324L1022.51 100.839L1020.99 102.098L1019.7 103.163L1007.32 112.303L1007.06 112.501L1004.56 114.342L1003.55 115.785L996.781 120.089L995.754 120.662L993.975 121.652L988.505 124.7" stroke="#F0F1F1" stroke-opacity="0.2" stroke-width="0.599267" stroke-linecap="round" stroke-linejoin="round"/>
</g>
<g style="mix-blend-mode:overlay">
<path d="M379.68 100.295L356.649 103.662L332.229 107.249L306.714 111.081L280.658 115.133L254.43 119.418L228.307 123.92L202.726 128.625L177.697 133.54L153.771 138.619L130.74 143.898L109.249 149.311L88.9767 154.923L70.7114 160.636L54.111 166.548L40.1361 172.527L28.549 178.679L20.4819 184.827" stroke="#F0F1F1" stroke-opacity="0.2" stroke-width="0.599267" stroke-linecap="round" stroke-linejoin="round"/>
</g>
<g style="mix-blend-mode:overlay">
<path d="M0 60.2018L24.4489 60.0069L70.5783 60.2656L109.582 61.0641L141.461 62.3612L175.566 60.0744L205.437 58.1288L231.522 56.4456L253.06 55.0285L270.498 53.8176L282.96 52.8242L316.085 54.3462L342.55 56.2056L363.479 58.3125L378.643 60.6555L389.089 63.1859L394.588 65.9075L396.119 68.7903L393.484 71.8531L387.605 75.0883L378.33 78.5222L366.524 82.1548L352.102 86.0235L335.853 90.1247L317.797 94.4996L298.59 99.1481L278.413 104.104L250.054 107.538L221.238 111.193L192.014 115.084L162.552 119.23L132.718 123.676L102.885 128.422L72.8424 133.547L43.1803 139.032L34.0952 146.6L27.7594 154.39L5.31786 160.662L0 162.39" stroke="#F0F1F1" stroke-opacity="0.2" stroke-width="0.599267" stroke-linecap="round" stroke-linejoin="round"/>
</g>
<g style="mix-blend-mode:overlay">
<path d="M399.534 96.479L377.369 99.5493L353.319 102.837L328.157 106.335L302.091 110.053L275.635 113.986L249.064 118.132L222.608 122.484L196.637 127.035L171.104 131.793L146.512 136.73L122.615 141.881L100.031 147.2L78.4552 152.752L58.6582 158.462L40.3549 164.418L24.5155 170.51L11.0163 176.846L1.03693 183.249L0 184.332" stroke="#F0F1F1" stroke-opacity="0.2" stroke-width="0.599267" stroke-linecap="round" stroke-linejoin="round"/>
</g>
<g style="mix-blend-mode:overlay">
<path d="M1316.14 0L1301.67 7.08522L1270.96 21.3756L1239.32 35.846L1214.03 34.3615L1185.14 48.5919L1153.25 63.2722L1120.39 77.9262L1084.22 92.8427L1046.86 107.56L1044.87 111.515L1039.69 116.359L1028.03 122.398L1011.46 129.315L986.621 137.341L955.256 146.143L914.169 155.834L865.29 166.057L805.89 176.786L738.27 187.642L660.538 198.45L575.519 208.838L482.432 218.506L384.713 227.151L286.071 230.326L202.184 231.061L132.119 229.58L76.4479 226.408L33.61 221.756L2.86346 216.171L0 215.271" stroke="#F0F1F1" stroke-opacity="0.2" stroke-width="0.599267" stroke-linecap="round" stroke-linejoin="round"/>
</g>
<g style="mix-blend-mode:overlay">
<path d="M1015.18 91.5531L1015.33 90.4509L1014.76 78.3648L1011.62 66.8635L1007.05 55.7034L1018.59 51.0099L1035.32 46.6538L1055.48 42.9575L1079.41 39.6548L1086.48 28.0935L1093.32 16.7721L1098.7 6.05805L1101.81 0" stroke="#F0F1F1" stroke-opacity="0.2" stroke-width="0.599267" stroke-linecap="round" stroke-linejoin="round"/>
</g>
<g style="mix-blend-mode:overlay">
<path d="M902.087 29.6566L887.246 23.2199L879.246 21.0981L862.046 16.5471L836.341 10.3841L810.152 4.8396" stroke="#F0F1F1" stroke-opacity="0.2" stroke-width="0.599267" stroke-linecap="round" stroke-linejoin="round"/>
</g>
<g style="mix-blend-mode:overlay">
<path d="M169.934 158.447L162.904 161.858L162.19 162.237L158.88 163.991L149.5 168.966L146.931 170.581L137.77 176.34L127.895 183.998L126.592 185.483L121.141 191.728L117.478 199.556L118.144 207.196L122.91 214.682L127.106 217.64" stroke="#F0F1F1" stroke-opacity="0.2" stroke-width="0.599267" stroke-linecap="round" stroke-linejoin="round"/>
</g>
<g style="mix-blend-mode:overlay">
<path d="M260.756 126.863L243.09 131.624L232.435 134.244L217.795 137.75L212.106 139.32L196.266 143.695L190.292 145.476L175.252 149.967L170.666 151.504L155.835 156.467L150.755 158.387L137.989 163.211L134.278 164.883L122.863 170.038L118.829 172.253L110.22 176.988L101.201 183.841L95.3886 190.668L93.876 197.19L96.1592 203.518L101.553 207.968L103.789 208.988L107.29 210.48L107.328 210.502L111.666 212.684L114.13 214.285L114.453 214.705L114.957 214.915L116.698 215.38" stroke="#F0F1F1" stroke-opacity="0.2" stroke-width="0.599267" stroke-linecap="round" stroke-linejoin="round"/>
</g>
<g style="mix-blend-mode:overlay">
<path d="M1244.47 0L1233.1 7.11521L1210.79 20.2922L1188.01 33.6604L1162.67 47.5647L1136.61 61.5477L1107.61 75.9319L1077.59 90.256L1044.25 104.801L1009.61 119.125L984.861 128.4L975.662 132.243L965.216 136.186L963.057 136.647L950.195 140.868L938.38 144.52" stroke="#F0F1F1" stroke-opacity="0.2" stroke-width="0.599267" stroke-linecap="round" stroke-linejoin="round"/>
</g>
<g style="mix-blend-mode:overlay">
<path d="M1280.17 0L1267.57 6.73659L1242.14 20.2547L1214.03 34.3615L1188.01 33.6604L1159.98 34.0728L1132.6 35.13L1115.81 48.0708L1098.45 61.1391L1078.51 74.6648L1057.55 88.2242L1033.47 102.11L1007.88 115.898L993.052 122.972L990.635 124.13L986.488 126.518L978.411 130.154L970.487 133.637L963.875 136.64L951.089 140.936L938.38 144.52L921.503 149.273L902.039 154.132L873.509 160.61L844.285 166.537" stroke="#F0F1F1" stroke-opacity="0.2" stroke-width="0.599267" stroke-linecap="round" stroke-linejoin="round"/>
</g>
<g style="mix-blend-mode:overlay">
<path d="M169.449 222.067L162.152 214.69L158.099 206.964L156.663 199.339L157.5 191.86L159.764 184.643L162.923 177.738L166.195 171.211L168.897 165.097L170.362 159.481L170.39 159.455" stroke="#F0F1F1" stroke-opacity="0.2" stroke-width="0.599267" stroke-linecap="round" stroke-linejoin="round"/>
</g>
<g style="mix-blend-mode:overlay">
<path d="M414.261 64.5803L394.588 65.9074L372.203 67.3507L346.708 68.9552L318.691 70.7358L287.85 72.7377L254.544 74.987L218.556 77.5399L180.065 80.434L139.007 83.7329L95.3411 87.4892L49.2117 91.7741L0.418575 96.67L0 96.715" stroke="#F0F1F1" stroke-opacity="0.2" stroke-width="0.599267" stroke-linecap="round" stroke-linejoin="round"/>
</g>
<g style="mix-blend-mode:overlay">
<path d="M435.466 68.884L415.954 70.3048L393.484 71.8531L368.797 73.5288L361.72 76.9177L351.845 80.5053L339.145 84.3328L324.361 88.4003L307.561 92.7414L289.391 97.3636L270.051 102.293L240.836 105.648L210.983 109.24L180.484 113.094L149.519 117.236L117.944 121.72L86.1323 126.552L53.8826 131.819L21.8232 137.509L0 141.757" stroke="#F0F1F1" stroke-opacity="0.2" stroke-width="0.599267" stroke-linecap="round" stroke-linejoin="round"/>
</g>
<g style="mix-blend-mode:overlay">
<path d="M202.126 223.312L194.668 216.264L189.274 208.823L186.04 201.501L184.318 194.39L183.528 187.556L183.148 181.037L182.406 174.904L180.893 169.153L177.706 163.86L173.149 159.586L172.788 159.252L172.531 159.009L170.971 158.364L170.476 158.653L170.914 158.938L170.457 159.387L170.143 159.399L169.277 159.485L168.44 160.43L167.879 161.73L165.196 163.721L163.436 165.228L162.628 166.709L164.036 169.127L166.195 171.211L170.048 172.864L168.174 179.29L166.319 186.083L165.149 193.198L165.396 200.56L167.537 208.118L172.369 215.732L179.276 222.476" stroke="#F0F1F1" stroke-opacity="0.2" stroke-width="0.599267" stroke-linecap="round" stroke-linejoin="round"/>
</g>
<g style="mix-blend-mode:overlay">
<path d="M911.904 0L896.788 4.62227L884.716 10.789L881.415 17.0158L887.246 23.22L903.438 28.0522L911.847 30.5602L926.269 36.4233L928.467 37.1431L928.495 37.1506L938.969 40.5132L954.457 45.4841L957.044 46.4288" stroke="#F0F1F1" stroke-opacity="0.2" stroke-width="0.599267" stroke-linecap="round" stroke-linejoin="round"/>
</g>
<g style="mix-blend-mode:overlay">
<path d="M349.543 169.067L333.247 165.517L331.382 164.704L315.733 162.608L313.621 162.349L306.553 161.596L300.778 160.958" stroke="#F0F1F1" stroke-opacity="0.2" stroke-width="0.599267" stroke-linecap="round" stroke-linejoin="round"/>
</g>
<g style="mix-blend-mode:overlay">
<path d="M985.242 58.9161L983.301 57.4091L976.813 52.3744L975.633 46.1852L961.373 36.8169L946.361 27.8948L930.389 19.6324L913.978 11.8087L896.788 4.62227L884.725 0" stroke="#F0F1F1" stroke-opacity="0.2" stroke-width="0.599267" stroke-linecap="round" stroke-linejoin="round"/>
</g>
<g style="mix-blend-mode:overlay">
<path d="M436.702 90.9158L419.284 93.9148L400.219 97.4462L380.556 101.135L360.312 105.004L339.126 108.719L317.54 112.929L296.982 117.506L277.014 122.248L257.74 127.133L239.637 132.123L222.608 137.195L207.235 142.278L199.834 144.625L187.619 148.509L175.28 153.828L170.895 156.036L169.173 157.228L165.615 159.155L156.159 164.115L149.5 168.966L145.143 173.479L142.545 177.685L142.117 181.449L143.354 184.804L146.522 187.65L151.183 190.023L157.5 191.86L165.149 193.198L174.148 194.034L184.318 194.39L195.543 194.308L207.777 193.809L220.753 192.973L234.528 191.8L248.674 190.405L263.306 188.778L277.851 187.039L292.454 185.168L306.391 183.29L319.842 181.367L331.934 179.519L342.845 177.7L351.636 176.021L358.437 174.443L362.309 173.052L362.785 171.642L360.473 170.874" stroke="#F0F1F1" stroke-opacity="0.2" stroke-width="0.599267" stroke-linecap="round" stroke-linejoin="round"/>
</g>
<g style="mix-blend-mode:overlay">
<path d="M190.263 222.877L183.138 216.268L178.02 208.714L175.166 201.28L174.148 194.034L174.281 187.046L174.928 180.388L175.537 174.087L175.309 168.205L173.777 162.743L170.752 159.181L170.314 159.2L170.295 159.331L170 159.56L169.677 160.002L169.002 160.43L167.28 160.853L163.893 161.776L156.577 166.278L153.98 167.912L145.143 173.479L142.831 175.204L135.011 181.018L133.679 182.375L127.429 188.718L122.501 196.591L121.455 204.384L124.185 212.118L130.587 218.307" stroke="#F0F1F1" stroke-opacity="0.2" stroke-width="0.599267" stroke-linecap="round" stroke-linejoin="round"/>
</g>
<g style="mix-blend-mode:overlay">
<path d="M1440 31.5497L1429.21 25.7915L1411.38 19.5648L1388.28 14.8001L1362.59 11.0513L1332.85 8.6333L1298.63 23.3248L1270.96 21.3755L1242.14 20.2546L1210.79 20.2921L1179.55 21.0156L1147.28 22.74L1116.5 25.0005L1086.48 28.0933L1059.54 31.5797L1035.27 35.7296L1015.7 40.1719L1000.65 45.1616L991.615 50.4211L988.486 56.2243L992.091 62.3835L995.659 65.2401L999.882 68.629L1005.39 73.0414L1009.48 77.8698L1013.16 83.6317L1013.19 83.6879L1015.18 91.5529L1014.42 98.6156L1014.13 99.3804L1010.61 106.057L1010.15 106.953L1009.57 107.71L1004.41 113.251L1000.92 116.677L998.56 118.259L997.152 119.301L988.505 124.7L982.949 127.793L978.687 129.828L976.737 131.076L970.487 133.637L966.748 135.073L963.057 136.647L955.665 139.178L950.633 140.906L934.413 146.049L917.004 150.54L910.734 152.156L898.015 155.136L881.681 159.087L866.945 162.102L844.285 166.536L840.86 167.162L800.401 174.577L796.034 175.275L747.441 183.035L742.865 183.691L687.698 191.582L676.33 192.988L619.289 200.043L589.37 203.286L544.953 208.099L517.736 210.266L457.755 215.038L446.596 215.814L404.671 218.735L399.877 219.068L386.901 220.013L385.845 220.118L378.986 220.223L372.251 220.227L363.356 220.635L361.72 220.661L353.053 220.961L341.513 221.689L332.742 222.622L296.412 224.883L225.928 225.794L166.557 224.819L118.734 222.416L81.1664 218.72L53.2738 214.195L33.8574 208.894L21.8137 203.237L0 197.91" stroke="#F0F1F1" stroke-opacity="0.2" stroke-width="0.599267" stroke-linecap="round" stroke-linejoin="round"/>
</g>
<g style="mix-blend-mode:overlay">
<path d="M211.611 141.24L198.121 146.008L190.891 148.733L190.33 148.94" stroke="#F0F1F1" stroke-opacity="0.2" stroke-width="0.599267" stroke-linecap="round" stroke-linejoin="round"/>
</g>
<g style="mix-blend-mode:overlay">
<path d="M1248.08 70.7022L1244.79 63.8344L1235.1 58.3911L1222.18 53.9451L1204.52 50.8261L1185.14 48.5918L1162.67 47.5646L1139.94 47.2834L1115.81 48.0707L1092.94 49.469L1070.52 51.7783L1050.91 54.5824L1033.64 58.1625L1020.63 62.1624L1011.62 66.8634L1007.99 71.9993L1009.48 77.8699" stroke="#F0F1F1" stroke-opacity="0.2" stroke-width="0.599267" stroke-linecap="round" stroke-linejoin="round"/>
</g>
<g style="mix-blend-mode:overlay">
<path d="M966.539 49.3491L960.27 42.8562L942.48 34.0278L923.948 25.683L904.579 18.0017L884.716 10.789L864.167 4.2099L849.669 0" stroke="#F0F1F1" stroke-opacity="0.2" stroke-width="0.599267" stroke-linecap="round" stroke-linejoin="round"/>
</g>
<g style="mix-blend-mode:overlay">
<path d="M353.633 169.299L363.318 171.807L364.431 172.133L372.926 174.833L374.267 176.013L372.365 177.404L367.209 179.009L359.722 180.748L349.838 182.649L338.46 184.617L325.484 186.694L311.747 188.771L297.116 190.881L282.332 192.909L267.254 194.874L252.48 196.658L237.886 198.266L223.902 199.59L210.47 200.617L197.836 201.265L186.04 201.502L175.166 201.28L165.396 200.561L156.663 199.338L149.3 197.562L143.145 195.275L138.664 192.422L135.591 189.1L134.497 185.254L135.011 181.018L137.77 176.34L142.289 171.38L149.176 166.102L157.852 160.666L168.849 155.046L171.38 154.068L181.521 149.393L196.266 143.695L212.439 138.061L230.266 132.497L248.256 128.456L253.764 127.219L270.307 123.984L271.335 124.055L279.611 122.177L280.8 121.967L299.57 117.592L306.172 116.149L307.238 115.928L319.595 113.244L339.915 109.041L360.416 104.82L380.232 100.599L399.534 96.479L418.722 92.8352L436.493 89.3825L453.113 86.0836L467.601 82.9496L480.396 79.9393L490.357 77.064L498.043 74.2899L502.163 71.6282L503.371 69.0491L500.288 66.5711L499.556 65.3752" stroke="#F0F1F1" stroke-opacity="0.2" stroke-width="0.599267" stroke-linecap="round" stroke-linejoin="round"/>
</g>
<g style="mix-blend-mode:overlay">
<path d="M453.455 87.7368L437.454 90.211L418.722 92.8352L397.27 95.6505L374.106 98.6383L349.295 101.836L323.581 105.225L297.087 108.824L270.269 112.621L243.328 116.629L216.453 120.835L189.931 125.244L163.703 129.87L138.198 134.69L113.178 139.755L89.2336 145.026L66.069 150.582L44.4646 156.344L24.2015 162.424L6.28821 168.707L0 171.365" stroke="#F0F1F1" stroke-opacity="0.2" stroke-width="0.599267" stroke-linecap="round" stroke-linejoin="round"/>
</g>
<g style="mix-blend-mode:overlay">
<path d="M271.782 223.425L265.941 217.22L260.604 210.105L256.218 203.252L252.48 196.658L248.674 190.405L244.631 184.46L239.494 178.911L233.225 173.712L224.825 168.958L214.37 164.591L200.738 160.733L184.051 157.33L175.337 156.16" stroke="#F0F1F1" stroke-opacity="0.2" stroke-width="0.599267" stroke-linecap="round" stroke-linejoin="round"/>
</g>
<g style="mix-blend-mode:overlay">
<path d="M0 71.0435L16.6956 71.6133L42.4668 73.229L62.6062 75.2834L107.47 71.7932L149.1 68.7567L187.267 66.1326L202.06 68.528L211.839 71.2422L217.262 74.245L218.556 77.5402L216.254 81.124L210.688 85.0115L202.298 89.2102L191.538 93.7312L154.132 97.3038L142.098 102.391L103.779 106.62L64.1664 111.321L23.0219 116.591L0 119.8" stroke="#F0F1F1" stroke-opacity="0.2" stroke-width="0.599267" stroke-linecap="round" stroke-linejoin="round"/>
</g>
<g style="mix-blend-mode:overlay">
<path d="M386.958 219.424L387.814 217.921L388.832 215.728L391.182 209.003L392.904 202.51L393.056 196.452L394.854 194.491" stroke="#F0F1F1" stroke-opacity="0.2" stroke-width="0.599267" stroke-linecap="round" stroke-linejoin="round"/>
</g>
<g style="mix-blend-mode:overlay">
<path d="M387.082 219.417L387.814 217.921L389.06 215.574L390.23 213.363" stroke="#F0F1F1" stroke-opacity="0.2" stroke-width="0.599267" stroke-linecap="round" stroke-linejoin="round"/>
</g>
<g style="mix-blend-mode:overlay">
<path d="M170.048 172.865L171.323 166.844L171.209 161.281L170.39 159.455" stroke="#F0F1F1" stroke-opacity="0.2" stroke-width="0.599267" stroke-linecap="round" stroke-linejoin="round"/>
</g>
<g style="mix-blend-mode:overlay">
<path d="M477.571 82.6798L468.286 84.7116L454.169 86.9684L438.243 90.3798L433.867 91.5119L432.707 91.7256L419.693 93.8512L400.029 96.824L380.232 100.599L359.113 104.318L339.126 108.719L319.395 113.184L318.387 113.405L313.06 114.571L299.57 117.592L283.864 121.217L280.211 122.072L261.784 126.612L260.756 126.863L251.747 129.109L239.637 132.123L232.435 134.244L222.608 137.195L216.567 139.185L207.235 142.278L193.27 147.358L189.607 148.94L181.312 152.336L177.259 154.271L176.755 154.642L175.366 155.601L175.29 156.156L174.472 156.625L173.929 156.925L173.891 157.022L178.581 157.303L184.051 157.33L189.369 157.228L194.934 156.943L199.682 156.617L222.456 159.286L240.988 162.525L256.485 166.199L268.69 170.36L279.954 169.045L289.962 167.762L298.999 166.465L306.039 165.273L311.309 164.145L314.506 162.912L313.621 162.375L309.816 161.817L300.778 160.958L292.226 160.167L288.925 159.845L267.434 158.263L261.023 157.794L255.086 157.318L244.745 156.707L238.781 156.584L237.192 157.401L233.729 157.997L228.44 158.672L222.456 159.286L215.369 159.894L208.262 160.362L189.369 157.228L175.965 155.673L175.023 156.119L174.976 156.291L173.682 156.494L171.009 157.21L170.942 157.251L170.029 157.772L163.893 161.776L156.577 166.278L152.477 170.36L150.156 174.105L149.947 177.416L151.44 180.306L154.817 182.709L159.764 184.643L166.319 186.083L174.281 187.046L183.528 187.556L194.012 187.627L205.447 187.32L217.899 186.641L230.904 185.693L244.631 184.46L258.454 183.069L272.591 181.491L286.28 179.86L299.741 178.139L312.108 176.452L323.6 174.758L333.266 173.172L341.276 171.65L346.66 170.289L350.151 168.805L353.633 169.299L360.473 170.874L363.299 171.834L374.496 175.849L380.175 178.263L382.144 179.196L383.029 180.336L388.813 183.912L388.195 185.483L384.57 187.252L377.978 189.236L369.292 191.35L358.504 193.625L346.441 195.972L333.066 198.42L319.1 200.864L304.498 203.331L289.838 205.708L275.073 208.002L260.604 210.105L246.401 212.009L232.673 213.621L219.44 214.907L206.74 215.807L194.668 216.264L183.138 216.268L172.369 215.732L162.152 214.69L152.905 213.048L144.334 210.885L137.028 208.096L130.663 204.808L125.945 200.917L122.501 196.591L121.141 191.728L121.369 186.529L124.014 180.913L128.475 175.08L135.515 168.973L144.429 162.78L155.835 156.467L168.983 150.192L184.308 143.935L201.08 137.813L224.968 132.306L249.16 127.081L273.418 122.14L296.982 117.506L318.463 113.056L339.126 108.719L359.769 104.569L380.232 100.599L400.219 97.4463L409.086 96.0442L416.125 94.7659L419.322 94.1698L431.946 91.8343L436.702 90.9159L449.669 88.5129L453.455 87.7369L463.368 85.7126L468.286 84.7116L478.931 82.5673L482.385 81.2665L492.345 78.0988L500.555 75.3659L505.321 72.7417L507.319 70.1963L507.328 68.8317L505.15 67.7483L502.134 66.38L499.556 65.3753L497.482 64.9292L493.639 64.1457L489.072 63.1186L485.467 62.5488L481.918 61.9077L480.178 61.6715L475.059 60.9818L471.521 60.5656L465.889 59.7521L458.82 59.0549L453.912 58.4926L441.82 57.4916L439.918 57.3342L438.253 57.2067L437.606 57.158L430.29 56.5394L418.599 55.8384L394.949 54.5863L367.789 53.1768L363.28 52.9631L356.268 52.5957L331.382 51.9584L294.661 51.0175L290.314 50.9087L281.4 50.7026L279.821 50.6876L248.208 50.6426L243.338 51.6697L232.673 52.5994L217.357 53.7428L196.913 55.1449L172.265 56.7943L142.888 58.77L109.582 61.0642L71.834 63.7634L30.2995 66.8786L0 69.2816" stroke="#F0F1F1" stroke-opacity="0.2" stroke-width="0.599267" stroke-linecap="round" stroke-linejoin="round"/>
</g>
<g style="mix-blend-mode:overlay">
<path d="M1187.89 74.4623L1179.69 69.6713L1168.64 65.8325L1153.25 63.2721L1136.61 61.5477L1117.39 60.9854L1098.45 61.1391L1078.78 62.3162L1060.97 64.0931L1044.31 66.7548L1031 69.9262L1020.59 73.9L1014.76 78.3648L1013.17 83.6168" stroke="#F0F1F1" stroke-opacity="0.2" stroke-width="0.599267" stroke-linecap="round" stroke-linejoin="round"/>
</g>
<g style="mix-blend-mode:overlay">
<path d="M874.156 0L864.167 4.2099L858.431 10.3617L862.046 16.5472L875.05 22.7327L890.88 27.0738L902.087 29.6567L915.443 33.4468L925.613 36.3333L926.269 36.4233L928.391 37.1093" stroke="#F0F1F1" stroke-opacity="0.2" stroke-width="0.599267" stroke-linecap="round" stroke-linejoin="round"/>
</g>
<g style="mix-blend-mode:overlay">
<path d="M1000.03 66.7098L1000.48 61.0116L991.615 50.4213L981.16 40.4832L969.935 30.9463L957.625 22.0579L944.906 13.5781L931.33 5.73566L920.609 0" stroke="#F0F1F1" stroke-opacity="0.2" stroke-width="0.599267" stroke-linecap="round" stroke-linejoin="round"/>
</g>
<g style="mix-blend-mode:overlay">
<path d="M379.29 219.901L380.337 214.311L386.844 211.556L388.166 204.887L388.566 198.607L393.056 196.452L391.705 190.765L392.837 189.022" stroke="#F0F1F1" stroke-opacity="0.2" stroke-width="0.599267" stroke-linecap="round" stroke-linejoin="round"/>
</g>
<g style="mix-blend-mode:overlay">
<path d="M1440 75.3994L1427.59 78.1173L1400.04 93.4236L1361.35 110.263L1308.12 128.797L1240.83 148.703L1156.42 169.967L1056.03 192.148L937.59 215.016L803.568 238.018L653.441 260.751L491.375 282.674L318.311 303.367L138.949 303.42L0 299.532" stroke="#F0F1F1" stroke-opacity="0.2" stroke-width="0.599267" stroke-linecap="round" stroke-linejoin="round"/>
</g>
<g style="mix-blend-mode:overlay">
<path d="M315.267 222.491L311.785 217.1L307.999 210.045L304.498 203.331L301.121 196.917L297.116 190.881L292.454 185.168L286.28 179.86L278.679 174.893L268.69 170.36" stroke="#F0F1F1" stroke-opacity="0.2" stroke-width="0.599267" stroke-linecap="round" stroke-linejoin="round"/>
</g>
<g style="mix-blend-mode:overlay">
<path d="M1440 22.3428L1429.21 25.7917L1372.58 43.1711L1310.86 60.9704L1310.06 69.7163L1300.69 79.9992L1283.99 91.5305L1256.5 104.591L1219.29 118.874L1168.94 134.537L1106.62 151.219L1071.63 159.223L1029.32 168.902L938.732 187.136L832.84 205.708L714.42 224.092L582.882 241.917L442.344 258.693L293.577 274.018L141.556 287.608L0 298.258" stroke="#F0F1F1" stroke-opacity="0.2" stroke-width="0.599267" stroke-linecap="round" stroke-linejoin="round"/>
</g>
<g style="mix-blend-mode:overlay">
<path d="M1029.46 0L1031.21 5.37577L1033.07 15.0777L1034.81 25.0982L1035.27 35.7298L1035.32 46.6538L1033.64 58.1626L1031 69.9263L1026 82.2373L1019.36 94.7471L1013.76 102.162L1012.92 103.268L1009.99 107.257L1009.57 107.71" stroke="#F0F1F1" stroke-opacity="0.2" stroke-width="0.599267" stroke-linecap="round" stroke-linejoin="round"/>
</g>
<g style="mix-blend-mode:overlay">
<path d="M388.813 183.912L392.837 189.022L394.854 194.491L394.778 200.369L392.904 202.51L388.166 204.887L381.412 207.421L380.337 214.311L372.479 217.171L372.26 220.185" stroke="#F0F1F1" stroke-opacity="0.2" stroke-width="0.599267" stroke-linecap="round" stroke-linejoin="round"/>
</g>
<g style="mix-blend-mode:overlay">
<path d="M353.053 220.962L351.854 215.815L350.456 208.816L348.667 202.221L346.441 195.972L343.017 190.128L338.46 184.617L331.934 179.519L323.6 174.758L312.546 170.428L298.999 166.465L281.97 162.975L261.726 159.909L237.192 157.401L208.643 155.425L208.101 155.167L205.618 155.002L197.37 154.859L182.006 154.417L178.829 154.297" stroke="#F0F1F1" stroke-opacity="0.2" stroke-width="0.599267" stroke-linecap="round" stroke-linejoin="round"/>
</g>
<g style="mix-blend-mode:overlay">
<path d="M488.425 80.0217L481.586 81.8024L468.876 83.8905L453.113 86.0835L434.105 88.4228L413.043 90.8932L393.988 94.6683L374.106 98.6382L353.319 102.837L332.229 107.249L310.929 111.894L285.395 116.055L259.557 120.467L239.019 126.042L214.027 131.047L189.617 136.284L172.426 142.788L150.66 148.576L137.151 155.575L119.371 161.813L110.705 169.168L104.379 176.583L101.201 183.841L100.393 191.02L102.647 197.865L107.004 204.497L113.958 210.634L122.444 216.448L123.414 216.932" stroke="#F0F1F1" stroke-opacity="0.2" stroke-width="0.599267" stroke-linecap="round" stroke-linejoin="round"/>
</g>
<g style="mix-blend-mode:overlay">
<path d="M257.284 223.694L252.461 219.207L246.401 212.009L241.739 205.003L237.886 198.266L234.528 191.8L230.904 185.693L226.851 179.905L221.448 174.533L214.636 169.528L205.399 164.996L193.764 160.88L179.095 157.423L178.581 157.303L174.472 156.625" stroke="#F0F1F1" stroke-opacity="0.2" stroke-width="0.599267" stroke-linecap="round" stroke-linejoin="round"/>
</g>
<g style="mix-blend-mode:overlay">
<path d="M1135.88 85.2776L1129.36 81.1502L1120.39 77.9262L1107.61 75.9319L1094.03 74.7398L1078.51 74.6648L1063.8 75.2871L1049.05 76.9028L1036.64 79.1221L1026 82.2374L1019.03 85.9149L1015.33 90.451" stroke="#F0F1F1" stroke-opacity="0.2" stroke-width="0.599267" stroke-linecap="round" stroke-linejoin="round"/>
</g>
<g style="mix-blend-mode:overlay">
<path d="M1006.01 0L994.793 1.8669L966.434 7.72627L944.906 13.5781L930.389 19.6324L923.948 25.683L925.623 31.9847L940.14 37.7391L946.628 40.3145L959.651 46.2227L966.539 49.3491L977.289 54.8636L977.641 55.0286" stroke="#F0F1F1" stroke-opacity="0.2" stroke-width="0.599267" stroke-linecap="round" stroke-linejoin="round"/>
</g>
<g style="mix-blend-mode:overlay">
<path d="M268.69 170.36L257.151 171.575L245.031 172.737L233.225 173.712L221.448 174.533L210.45 175.08L200.005 175.372L190.701 175.309L182.406 174.904L175.537 174.087L170.048 172.865" stroke="#F0F1F1" stroke-opacity="0.2" stroke-width="0.599267" stroke-linecap="round" stroke-linejoin="round"/>
</g>
<g style="mix-blend-mode:overlay">
<path d="M169.725 159.71L168.012 160.373L167.28 160.853L165.919 162.368L163.284 164.253L159.336 167.073L158.404 167.088L152.477 170.36L147.996 173.659L142.545 177.685L141.204 178.949L134.497 185.254L128.561 193.07L125.945 200.917L126.687 208.8L131.9 216.429L135.021 218.851" stroke="#F0F1F1" stroke-opacity="0.2" stroke-width="0.599267" stroke-linecap="round" stroke-linejoin="round"/>
</g>
<g style="mix-blend-mode:overlay">
<path d="M93.9711 91.4818L95.341 87.4894L93.4003 83.8718L87.5688 80.6253L77.4563 77.7612L29.6906 81.7949L0 84.5016" stroke="#F0F1F1" stroke-opacity="0.2" stroke-width="0.599267" stroke-linecap="round" stroke-linejoin="round"/>
</g>
<g style="mix-blend-mode:overlay">
<path d="M1088.88 96.299L1084.22 92.8426L1077.59 90.256L1067.71 88.8502L1057.55 88.2241L1046.07 88.6815L1035.89 89.8324L1026.26 91.9692L1019.36 94.747L1014.62 98.4546" stroke="#F0F1F1" stroke-opacity="0.2" stroke-width="0.599267" stroke-linecap="round" stroke-linejoin="round"/>
</g>
<g style="mix-blend-mode:overlay">
<path d="M301.178 222.877L298.638 219.728L293.805 212.591L289.838 205.708L286.071 199.162L282.332 192.909L277.851 187.039L272.591 181.491L265.665 176.358L257.151 171.575L246.02 167.249L232.473 163.313L215.369 159.894L194.934 156.943L177.002 155.271" stroke="#F0F1F1" stroke-opacity="0.2" stroke-width="0.599267" stroke-linecap="round" stroke-linejoin="round"/>
</g>
<g style="mix-blend-mode:overlay">
<path d="M242.824 223.784L239.38 220.909L232.673 213.621L227.66 206.502L223.902 199.589L220.753 192.973L217.899 186.641L214.522 180.688L210.45 175.08L204.724 169.906L197.256 165.127L187.381 161.014L186.981 160.846L175.737 157.562L175.499 157.494L173.872 157.134L172.483 157.52L181.226 160.519L181.787 160.823L189.598 165.029L195.81 169.97L200.005 175.372L203.135 181.145L205.447 187.32L207.777 193.809L210.47 200.617L214.199 207.664L219.44 214.907L226.689 222.27L228.506 223.638" stroke="#F0F1F1" stroke-opacity="0.2" stroke-width="0.599267" stroke-linecap="round" stroke-linejoin="round"/>
</g>
<g style="mix-blend-mode:overlay">
<path d="M286.071 69.6414L287.85 72.7379L285.947 76.0705L280.486 79.6656L272.086 83.5156L238.162 86.2073L227.137 90.5296L213.999 95.1744L199.187 100.153L164.616 103.815L128.666 107.86L91.5928 112.325L53.1882 117.292L14.0034 122.784L0 124.917" stroke="#F0F1F1" stroke-opacity="0.2" stroke-width="0.599267" stroke-linecap="round" stroke-linejoin="round"/>
</g>
<g style="mix-blend-mode:overlay">
<path d="M414.261 64.5803L416.962 67.3732L415.954 70.3047L410.998 73.4162L403.064 76.6814L391.933 80.1491L378.52 83.8041L362.709 87.6954L345.281 91.8153L326.245 96.2052L306.267 100.865L285.481 105.821L257.769 109.363L229.772 113.112L201.537 117.082L173.302 121.277L144.943 125.738L116.831 130.458L88.7294 135.504L61.2268 140.853L34.0952 146.6L8.17181 152.692L0 154.844" stroke="#F0F1F1" stroke-opacity="0.2" stroke-width="0.599267" stroke-linecap="round" stroke-linejoin="round"/>
</g>
<g style="mix-blend-mode:overlay">
<path d="M1046.86 107.561L1044.25 104.801L1040.18 102.886L1033.47 102.11L1026.95 102.102L1019.7 103.163L1014.13 104.936L1009.82 107.557" stroke="#F0F1F1" stroke-opacity="0.2" stroke-width="0.599267" stroke-linecap="round" stroke-linejoin="round"/>
</g>
<g style="mix-blend-mode:overlay">
<path d="M435.466 68.8841L435.19 66.0501L430.395 63.3734L421.424 60.8355L407.154 58.4775L387.928 56.2957L377.597 57.2516L354.975 55.2085L325.988 53.4466L290.865 51.9996L248.246 50.725L241.616 50.2376L194.773 50.1402L184.936 50.1177L169.696 50.2639L133.042 50.4476L72.8519 51.7372L2.8159 53.4316L1.56016 53.4541L0 53.6378" stroke="#F0F1F1" stroke-opacity="0.2" stroke-width="0.599267" stroke-linecap="round" stroke-linejoin="round"/>
</g>
<g style="mix-blend-mode:overlay">
<path d="M341.418 221.434L340.372 218.708L337.918 211.597L335.72 204.815L333.066 198.42L329.907 192.358L325.484 186.694L319.842 181.367L312.108 176.452L302.481 171.886L289.962 167.762L274.817 164.021L255.971 160.782L233.729 157.997L206.912 155.811L183.871 154.626" stroke="#F0F1F1" stroke-opacity="0.2" stroke-width="0.599267" stroke-linecap="round" stroke-linejoin="round"/>
</g>
<g style="mix-blend-mode:overlay">
<path d="M140.671 50.9124L134.849 51.6284L72.8519 51.7371L61.1697 51.6096L52.9218 51.8271L0 53.0642" stroke="#F0F1F1" stroke-opacity="0.2" stroke-width="0.599267" stroke-linecap="round" stroke-linejoin="round"/>
</g>
<g style="mix-blend-mode:overlay">
<path d="M1137.76 0L1136.1 2.14806L1126.35 13.4507L1093.32 16.7721L1062.07 20.7908L1034.81 25.0982L1011.35 29.9454L993.47 34.9875L981.16 40.4832L975.633 46.1852L988.485 56.2244L1000.03 66.7098L1005.39 73.0415" stroke="#F0F1F1" stroke-opacity="0.2" stroke-width="0.599267" stroke-linecap="round" stroke-linejoin="round"/>
</g>
<g style="mix-blend-mode:overlay">
<path d="M508.765 71.2422L505.321 72.7417L498.043 74.29L486.447 75.9207L472.006 77.6114L454.264 79.4071L434.438 81.2852L419.607 84.7491L403.111 88.3929L378.662 90.8409L359.674 94.9496L333.332 97.8211L312.803 102.47L285.481 105.821L264.4 111.069L243.328 116.629L222.608 122.484L202.726 128.625L183.785 135.05L160.326 140.295L144.467 147.305L124.366 153.022L112.883 160.52L97.472 166.582L91.6975 174.39L82.3936 180.602L83.5067 188.471L88.3774 196.07L90.6035 202.161L96.9868 205.79L100.811 207.961L101.715 208.474L103.199 209.322L108.679 212.163L112.902 214.011L114.082 214.529L115.728 215.218L116.403 215.661L117.383 215.912" stroke="#F0F1F1" stroke-opacity="0.2" stroke-width="0.599267" stroke-linecap="round" stroke-linejoin="round"/>
</g>
<g style="mix-blend-mode:overlay">
<path d="M500.288 66.571L496.959 67.8081L488.996 69.1127L477.856 70.4623L463.006 71.8906L456.518 74.8709L446.625 78.0086L434.438 81.2851L412.158 83.2944L388.356 85.4162L371.423 89.3112L345.281 91.8154L317.797 94.4996L289.391 97.3637L259.948 100.441L240.836 105.648L221.238 111.193L201.537 117.082L182.291 123.305L163.703 129.869L146.512 136.73L130.74 143.897L117.24 151.279L97.9952 156.996L89.7853 164.793L75.7534 170.806L74.2694 178.791L67.0108 184.868L73.4988 192.737L74.5357 198.551L80.0534 203.953L89.8995 209.085L105.729 213.393L115.728 215.218L116.651 215.248L117.288 215.316L117.916 215.657L118.43 215.972L120.912 216.564" stroke="#F0F1F1" stroke-opacity="0.2" stroke-width="0.599267" stroke-linecap="round" stroke-linejoin="round"/>
</g>
<g style="mix-blend-mode:overlay">
<path d="M505.15 67.7483L503.371 69.0491L496.73 70.4174L486.751 71.8307L472.909 73.319L465.213 76.288L454.264 79.407L441.202 82.661L419.607 84.7491L396.443 86.9534L371.423 89.3114L353.101 93.435L326.245 96.2054L298.59 99.1482L270.051 102.293L250.054 107.538L229.772 113.112L209.547 119.017L189.931 125.244L171.104 131.793L153.771 138.619L137.913 145.727L117.24 151.279L105.853 158.889L89.7854 164.793L84.2772 172.73L74.2694 178.791L75.9912 186.795L73.4988 192.737L80.5956 198.229L83.4876 200.467L91.5072 204.647L96.6444 207.323L97.472 207.751L105.073 210.87L108.479 211.983L111.361 212.752L113.863 213.494L117.288 215.316L117.754 215.788L118.61 216.077L119.466 216.156L120.266 216.332" stroke="#F0F1F1" stroke-opacity="0.2" stroke-width="0.599267" stroke-linecap="round" stroke-linejoin="round"/>
</g>
<g style="mix-blend-mode:overlay">
<path d="M365.81 53.6267L362.595 54.3577L354.975 55.2087L342.55 56.2059L326.245 57.338L305.649 58.6501L281.542 60.1421L253.526 61.8703L232.55 59.8235L205.437 58.129L172.265 56.7944L131.843 55.9397L84.2392 55.5948L56.6034 57.6192L24.4489 60.0072L0 61.8741" stroke="#F0F1F1" stroke-opacity="0.2" stroke-width="0.599267" stroke-linecap="round" stroke-linejoin="round"/>
</g>
<g style="mix-blend-mode:overlay">
<path d="M1068.81 0L1065.61 0.401121L1031.23 5.37202L1031.21 5.37577L1000.78 10.7815L976.214 16.2698L957.625 22.0579L946.361 27.8948L942.48 34.0278L946.628 40.3145L957.425 46.4926L958.671 47.0361L968.184 51.0474L977.289 54.8636L977.641 55.0286L985.946 58.8711L992.091 62.3837" stroke="#F0F1F1" stroke-opacity="0.2" stroke-width="0.599267" stroke-linecap="round" stroke-linejoin="round"/>
</g>
<g style="mix-blend-mode:overlay">
<path d="M382.62 219.698L384.551 218.686L386.844 211.556L391.182 209.003L393.256 206.637L394.778 200.369" stroke="#F0F1F1" stroke-opacity="0.2" stroke-width="0.599267" stroke-linecap="round" stroke-linejoin="round"/>
</g>
<g style="mix-blend-mode:overlay">
<path d="M493.62 64.1794L492.744 65.3116L487.988 66.4924L478.808 67.7333L466.526 69.0266L450.658 70.4024L432.298 71.8532L425.372 74.9835L415.716 78.2712L403.064 81.75L388.356 85.4164L362.709 87.6956L335.853 90.1249L307.561 92.7415L278.184 95.5531L247.609 98.5971L229.639 103.748L210.983 109.24L192.014 115.084L173.302 121.277L155.122 127.826L138.198 134.691L122.615 141.881L109.249 149.311L97.9952 156.996L80.9761 162.78L75.7534 170.806L64.7086 176.771L67.0108 184.868L63.5195 190.743L71.853 196.651L74.5357 198.551L84.3438 203.275L89.8329 205.921L99.8598 209.696L104.702 211.518L106.614 212.137L108.926 212.602L111.723 213.831L113.911 214.761L115.633 215.743L120.836 216.913" stroke="#F0F1F1" stroke-opacity="0.2" stroke-width="0.599267" stroke-linecap="round" stroke-linejoin="round"/>
</g>
<g style="mix-blend-mode:overlay">
<path d="M440.65 58.0015L438.662 58.8637L431.879 59.8121L421.424 60.8356L406.84 61.9639L394.968 59.5047L377.597 57.2517L363.479 58.3126L345.148 59.5235L323.448 60.8805L297.953 62.4363L269.328 64.1945L253.526 61.8702L222.218 63.8421L187.267 66.1326L167.346 64.0558L141.461 62.3613L103.751 64.9967L62.0164 68.0745L16.6956 71.6133L0 73.0079" stroke="#F0F1F1" stroke-opacity="0.2" stroke-width="0.599267" stroke-linecap="round" stroke-linejoin="round"/>
</g>
<g style="mix-blend-mode:overlay">
<path d="M457.955 59.3247L457.593 60.2244L452.342 61.2066L443.438 62.245L430.395 63.3734L414.261 64.5805L406.84 61.9639L389.089 63.186L367.751 64.5468L343.559 66.05L316.151 67.7445L286.071 69.6414L279.906 66.7998L269.327 64.1944L237.202 66.2187L202.06 68.528L163.608 71.1934L122.121 74.2449L77.4563 77.7613L62.6062 75.2833L14.3744 79.3058L0 80.5954" stroke="#F0F1F1" stroke-opacity="0.2" stroke-width="0.599267" stroke-linecap="round" stroke-linejoin="round"/>
</g>
<g style="mix-blend-mode:overlay">
<path d="M500.26 76.5205L498.757 77.1953L492.706 78.9385L481.976 80.9253L467.601 82.9497L450.516 85.0678L430.471 87.3283L413.043 90.8934L389.793 93.5363L365.268 96.3329L344.672 100.659L323.581 105.225L302.091 110.053L280.658 115.133L259.558 120.468L233.739 125.112L208.462 129.975L189.617 136.284L166.471 141.697L150.66 148.576L130.911 154.473L119.371 161.813L104.35 168.066L98.2901 175.699L95.5503 183.207L89.871 189.79L88.3774 196.07L93.0864 200.576L96.1592 203.518L101.163 206.645L104.483 208.366L107.29 210.469L107.328 210.502L111.418 212.808L115.994 215.065" stroke="#F0F1F1" stroke-opacity="0.2" stroke-width="0.599267" stroke-linecap="round" stroke-linejoin="round"/>
</g>
<g style="mix-blend-mode:overlay">
<path d="M361.853 220.606L363.327 220.152L362.852 212.92L362.033 206.113L360.825 199.665L358.504 193.625L355.098 187.935L349.838 182.649L342.845 177.701L333.266 173.172L321.308 169L306.039 165.273L287.726 161.952L265.341 159.148L239.171 156.838L238.467 156.381L235.603 156.164L223.607 155.89L209.461 155.241L208.367 155.298L206.912 155.811L204.058 156.194L199.682 156.617L177.763 154.87" stroke="#F0F1F1" stroke-opacity="0.2" stroke-width="0.599267" stroke-linecap="round" stroke-linejoin="round"/>
</g>
<g style="mix-blend-mode:overlay">
<path d="M0 57.9863L1.64578 57.9563L56.6034 57.6189L103.675 57.9076L142.888 58.7698L175.566 60.0744L201.67 61.7913L222.218 63.8419L237.202 66.2186L247.438 68.869L252.993 71.8006L254.544 74.9871L252.251 78.451L246.705 82.181L238.162 86.2072L202.298 89.21L164.473 92.5727L124.604 96.3552L82.8883 100.61L39.1277 105.424L31.7455 110.788L23.0219 116.591L14.0034 122.784L4.85172 129.408L0 130.229" stroke="#F0F1F1" stroke-opacity="0.2" stroke-width="0.599267" stroke-linecap="round" stroke-linejoin="round"/>
</g>
<g style="mix-blend-mode:overlay">
<path d="M160.326 221.34L159.526 220.789L152.905 213.048L149.557 205.295L149.3 197.561L151.183 190.023L154.817 182.709L159.289 175.736L164.036 169.127L168.241 162.945L169.715 160.104" stroke="#F0F1F1" stroke-opacity="0.2" stroke-width="0.599267" stroke-linecap="round" stroke-linejoin="round"/>
</g>
<g style="mix-blend-mode:overlay">
<path d="M1065.66 0L1065.61 0.401121L1064.46 10.2829L1062.07 20.7908L1059.54 31.5799L1055.48 42.9575L1050.91 54.5825L1044.31 66.7548L1036.64 79.1221L1027.19 90.8183L1026.26 91.9692L1015.18 103.823L1014.13 104.936L1008.81 109.499L1007.16 110.901L1004.41 113.251" stroke="#F0F1F1" stroke-opacity="0.2" stroke-width="0.599267" stroke-linecap="round" stroke-linejoin="round"/>
</g>
<g style="mix-blend-mode:overlay">
<path d="M363.375 220.545L363.327 220.152L372.479 217.171L372.717 210.131L381.412 207.421L381.488 200.977L380.575 194.9L377.978 189.235L373.773 183.92L367.209 179.009L358.437 174.443L346.66 170.289L332.067 166.51L313.783 163.189" stroke="#F0F1F1" stroke-opacity="0.2" stroke-width="0.599267" stroke-linecap="round" stroke-linejoin="round"/>
</g>
<g style="mix-blend-mode:overlay">
<path d="M328.642 221.947L328.442 221.61L325.027 214.356L321.964 207.455L319.1 200.864L315.704 194.656L311.747 188.771L306.391 183.29L299.741 178.139L290.865 173.416L279.954 169.044L265.969 165.138L249.179 161.637L228.44 158.672L204.058 156.194L178.286 154.589" stroke="#F0F1F1" stroke-opacity="0.2" stroke-width="0.599267" stroke-linecap="round" stroke-linejoin="round"/>
</g>
<g style="mix-blend-mode:overlay">
<path d="M214.874 223.503L214.484 223.23L206.74 215.807L201.384 208.456L197.836 201.265L195.543 194.308L194.012 187.627L192.528 181.292L190.701 175.309L187.676 169.749L183.167 164.598L176.669 160.257L176.184 159.939L171.903 158.072L172.122 157.783L172.512 157.532L173.663 156.962L174.053 156.846" stroke="#F0F1F1" stroke-opacity="0.2" stroke-width="0.599267" stroke-linecap="round" stroke-linejoin="round"/>
</g>
<g style="mix-blend-mode:overlay">
<path d="M0 54.125L1.60772 54.0988L63.9761 53.0229L123.595 52.6255L174.177 52.9216L217.357 53.7426L253.06 55.0285L282.541 56.6742L305.649 58.6498L323.448 60.8803L335.768 63.362L343.559 66.0499L346.708 68.9552L346.042 72.0555L341.533 75.3732L333.941 78.9008L323.286 82.6721L310.282 86.687L295.051 90.9794L278.184 95.5529L259.948 100.441L229.639 103.748L198.483 107.313L166.443 111.178L133.717 115.369L100.117 119.946L66.0785 124.929L31.384 130.409L0 135.815" stroke="#F0F1F1" stroke-opacity="0.2" stroke-width="0.599267" stroke-linecap="round" stroke-linejoin="round"/>
</g>
<g style="mix-blend-mode:overlay">
<path d="M93.9712 91.4817L51.8849 95.5791L48.4125 95.9165L0.703973 100.951L0 101.03" stroke="#F0F1F1" stroke-opacity="0.2" stroke-width="0.599267" stroke-linecap="round" stroke-linejoin="round"/>
</g>
<g style="mix-blend-mode:overlay">
<path d="M145.704 220.178L137.741 219.402L135.068 218.892L130.635 218.315L130.587 218.307L129.36 218.154L127.258 217.835L123.453 217.25L122.606 217.179L121.693 216.883L121.093 216.778L120.96 216.515L120.608 216.373L120.266 216.332L119.362 216.092L118.696 215.919L116.403 215.661L104.911 213.61L93.6477 211.038L76.8475 207.2L67.9526 201.978L63.4814 200.107L50.182 194.54L51.5044 188.681L43.5609 180.699L53.4355 174.649L54.111 166.548L58.6583 158.462L66.069 150.582L76.4384 142.882L88.7294 135.504L102.885 128.422L117.944 121.72L133.717 115.369L149.357 109.409L164.616 103.815L178.781 98.597L191.538 93.731L227.137 90.5296L260.956 87.6505L293.063 85.0376L323.286 82.6721L351.845 80.5053L378.33 78.5222L403.064 76.6815L425.372 74.9833L445.673 73.3863L463.006 71.8906L466.526 69.0265L465.898 66.2974L461.57 63.6807L452.342 61.2065L438.662 58.8635L419.322 56.7004L418.599 55.8382L412.529 55.3171L395.253 54.3987L391.924 54.23L390.449 54.1363L378.082 53.5777L375.951 53.4802" stroke="#F0F1F1" stroke-opacity="0.2" stroke-width="0.599267" stroke-linecap="round" stroke-linejoin="round"/>
</g>
<g style="mix-blend-mode:overlay">
<path d="M149.794 221.13L140.414 220.324L136.885 219.747L132.414 218.877L131.073 218.772L130.54 218.791L124.347 217.846L122.587 217.366L111.009 216.099L97.6528 214.019L74.6594 210.435L61.1888 205.524L53.3689 200.114L50.182 194.54L37.2346 186.671L43.5608 180.699L40.1361 172.527L40.3549 164.418L44.4646 156.344L51.4187 148.497L61.2268 140.854L72.8424 133.547L86.1323 126.552L100.117 119.946L114.586 113.701L128.666 107.86L142.098 102.391L178.781 98.5971L213.999 95.1745L247.647 92.0742L279.706 89.2626L310.282 86.6872L339.145 84.3329L366.524 82.1549L391.933 80.1493L415.716 78.2711L437.111 76.5242L456.518 74.871L472.91 73.319L477.856 70.4624L478.808 67.7333L476.296 65.1091L469.047 62.6087L457.593 60.2244L440.65 58.0014L421.491 56.2095L419.008 56.3257L415.621 57.5365L407.154 58.4775L394.968 59.5047L378.643 60.6555L359.046 61.9264L335.768 63.3622L309.511 64.9667L279.906 66.7998L247.438 68.8692L211.839 71.2421L173.387 73.9525L131.929 77.064L87.5688 80.6254L40.2978 84.7116L29.6906 81.795L14.3744 79.3058L0 77.8775" stroke="#F0F1F1" stroke-opacity="0.2" stroke-width="0.599267" stroke-linecap="round" stroke-linejoin="round"/>
</g>
<g style="mix-blend-mode:overlay">
<path d="M867.107 22.7889L839.5 17.7131L836.979 17.267L827.389 15.6887L817.344 13.998L805.566 12.0374L779.272 6.50791L762.605 0.955944L761.53 0" stroke="#F0F1F1" stroke-opacity="0.2" stroke-width="0.599267" stroke-linecap="round" stroke-linejoin="round"/>
</g>
<g style="mix-blend-mode:overlay">
<path d="M925.613 36.3333L906.301 31.4824L897.15 29.1844L886.894 26.8601L867.611 22.699L865.071 21.698L847.548 16.4685L836.341 10.3842L834.848 4.33361L816.002 0" stroke="#F0F1F1" stroke-opacity="0.2" stroke-width="0.599267" stroke-linecap="round" stroke-linejoin="round"/>
</g>
<g style="mix-blend-mode:overlay">
<path d="M886.894 26.8601L880.854 25.4918L868.115 22.609L864.919 21.9642L838.786 16.6934L819.589 10.7291L791.297 5.59695L762.605 0.955944L755.841 0" stroke="#F0F1F1" stroke-opacity="0.2" stroke-width="0.599267" stroke-linecap="round" stroke-linejoin="round"/>
</g>
<g style="mix-blend-mode:overlay">
<path d="M115.176 215.953L109.487 214.99L91.1077 211.871L76.8474 207.2L70.7114 205.352L53.3689 200.114L49.2783 198.51L34.3901 192.684L20.4819 184.827" stroke="#F0F1F1" stroke-opacity="0.2" stroke-width="0.599267" stroke-linecap="round" stroke-linejoin="round"/>
</g>
<g style="mix-blend-mode:overlay">
<path d="M839.5 17.7131L836.979 17.267L829.844 15.7412L809.096 11.3064L779.272 6.50791L749.182 2.1893L731.753 0" stroke="#F0F1F1" stroke-opacity="0.2" stroke-width="0.599267" stroke-linecap="round" stroke-linejoin="round"/>
</g>
<g style="mix-blend-mode:overlay">
<path d="M110.743 213.798L109.173 213.262L106.614 212.137L97.472 207.751L90.6035 202.161L87.5593 199.56L81.6992 194.559" stroke="#F0F1F1" stroke-opacity="0.2" stroke-width="0.599267" stroke-linecap="round" stroke-linejoin="round"/>
</g>
<g style="mix-blend-mode:overlay">
<path d="M299.189 117.611L295.184 118.451L291.598 119.197L277.014 122.248L270.307 123.984L257.74 127.133L251.214 128.67L235.242 132.426L228.744 134.031L212.439 138.061L207.264 139.444L190.311 143.98L184.641 145.633L168.983 150.192L164.53 151.65L149.49 156.587L131.738 163.189L116.803 169.839L104.379 176.583L95.5503 183.207L95.3886 190.667L98.5089 197.813L101.353 201.438L103.969 204.77L112.255 211.248L119.552 216.062" stroke="#F0F1F1" stroke-opacity="0.2" stroke-width="0.599267" stroke-linecap="round" stroke-linejoin="round"/>
</g>
<g style="mix-blend-mode:overlay">
<path d="M226.528 136.441L216.567 139.185L202.003 143.11L195.534 145.093L181.521 149.393L168.136 153.956L162.314 155.942L157.139 157.922L144.429 162.78L140.7 164.471L129.065 169.745L125.032 171.961L116.061 176.876L113.502 178.795L106.624 183.95L104.274 186.611L100.393 191.02L98.5089 197.813L100.497 204.418L104.607 208.081" stroke="#F0F1F1" stroke-opacity="0.2" stroke-width="0.599267" stroke-linecap="round" stroke-linejoin="round"/>
</g>
<g style="mix-blend-mode:overlay">
<path d="M175.242 154.784L170.895 156.036L169.715 156.01L157.852 160.666L153.99 162.417L142.241 167.744L138.226 169.884L128.475 175.08L125.916 176.857L117.84 182.477L115.366 184.891L110.153 189.974L106.662 197.292L107.004 204.497L111.228 211.215L113.711 213.108" stroke="#F0F1F1" stroke-opacity="0.2" stroke-width="0.599267" stroke-linecap="round" stroke-linejoin="round"/>
</g>
<g style="mix-blend-mode:overlay">
<path d="M130.597 218.311L129.959 218.232L129.246 218.094L127.239 217.932L123.529 217.336L123.291 216.909L122.72 216.98L121.74 216.965L121.569 216.808L121.264 216.575L121.008 216.47L120.608 216.373L119.647 216.125L118.344 216.058L117.336 216.084L105.729 213.393L103.066 212.324L89.8995 209.085L83.031 206.858L67.9526 201.978L63.4909 196.534L63.5195 190.742L56.2895 182.799L64.7086 176.771L65.8026 168.711L80.9762 162.78L88.9767 154.923L100.031 147.2L113.178 139.755L128.447 132.576L144.943 125.738L162.552 119.23L180.484 113.094L198.483 107.313L215.949 101.892L232.493 96.8201L247.647 92.0741L260.956 87.6505L272.086 83.5156L303.946 81.0976L333.941 78.9008L361.72 76.9177L387.605 75.0883L410.998 73.4163L432.298 71.8531L435.466 68.8841L452.447 67.5457L465.898 66.2974L476.296 65.109L482.404 63.9844L485.172 62.7173L489.072 63.1184L493.049 63.9769L493.667 64.1081" stroke="#F0F1F1" stroke-opacity="0.2" stroke-width="0.599267" stroke-linecap="round" stroke-linejoin="round"/>
</g>
<g style="mix-blend-mode:overlay">
<path d="M146.179 220.212L139.596 219.409L138.027 219.214L134.383 218.99L131.073 218.772L127.305 217.977L123.7 217.078L122.844 216.872L121.331 216.707L118.411 216.028L117.05 215.128L113.892 214.12L109.173 213.261L100.44 211.057L92.6488 208.343L80.0534 203.953L75.097 201.73L63.4909 196.534L61.0365 194.922L51.5043 188.681L56.2895 182.799L53.4355 174.649L65.8026 168.711L70.7114 160.636L78.4552 152.752L89.2336 145.026L102.029 137.603L116.831 130.458L132.718 123.676L149.519 117.236L166.443 111.178L183.224 105.484L199.187 100.153L232.493 96.8201L264.466 93.7723L295.051 90.9794L324.361 88.4003L352.102 86.0235L378.52 83.8042L403.064 81.7499L426.038 79.8155L437.111 76.5241L445.673 73.3863L450.658 70.4023L452.447 67.5457L449.907 64.8353L443.438 62.2449L431.879 59.8119L415.621 57.5364L393.494 55.4671L387.928 56.2956L362.595 54.3574L331.43 52.6855L293.862 51.2085L290.428 50.9273L267.615 50.6049L263.096 50.5412L248.208 50.6499L198.54 50.4287L195.895 51.006L187.933 51.8233L174.177 52.9217L155.655 54.2712L131.843 55.9394L103.675 57.9076L70.5782 60.2656L33.3817 63.0059L0 65.5776" stroke="#F0F1F1" stroke-opacity="0.2" stroke-width="0.599267" stroke-linecap="round" stroke-linejoin="round"/>
</g>
<g style="mix-blend-mode:overlay">
<path d="M172.112 157.393L170.628 157.745L167.061 159.05L165.615 159.155L156.159 164.115L152.173 166.206L142.289 171.38L139.73 173.026L130.673 178.844L128.2 180.891L121.369 186.529L120.142 188.182L115.661 194.202L113.397 201.891L115.766 209.284L122.444 216.448" stroke="#F0F1F1" stroke-opacity="0.2" stroke-width="0.599267" stroke-linecap="round" stroke-linejoin="round"/>
</g>
<g style="mix-blend-mode:overlay">
<path d="M169.03 159.406L167.46 160.37L163.113 163.414L160.288 167.088L157.386 170.383L149.947 177.415L143.354 184.804L138.664 192.422L136.191 200.253L137.028 208.096L141.271 215.934L146.179 220.212" stroke="#F0F1F1" stroke-opacity="0.2" stroke-width="0.599267" stroke-linecap="round" stroke-linejoin="round"/>
</g>
<g style="mix-blend-mode:overlay">
<path d="M159.317 167.091L155.207 170.233L150.156 174.105L148.853 175.301L142.117 181.449L135.591 189.1L131.71 196.89L130.663 204.808L133.565 212.605L139.596 219.409" stroke="#F0F1F1" stroke-opacity="0.2" stroke-width="0.599267" stroke-linecap="round" stroke-linejoin="round"/>
</g>
<g style="mix-blend-mode:overlay">
<path d="M393.256 206.637L392.561 208.193L390.23 213.363L388.575 215.908L384.551 218.686L384.247 219.593" stroke="#F0F1F1" stroke-opacity="0.2" stroke-width="0.599267" stroke-linecap="round" stroke-linejoin="round"/>
</g>
<g style="mix-blend-mode:overlay">
<path d="M175.28 153.828L170.809 156.021L164.587 159.073L160.554 160.913L149.176 166.102L145.181 168.205L135.23 173.442L132.671 175.148L124.014 180.913L121.521 183.144L115.48 188.542L110.905 196.07L110.01 203.545L113.958 210.634L121.816 216.474L123.291 216.909" stroke="#F0F1F1" stroke-opacity="0.2" stroke-width="0.599267" stroke-linecap="round" stroke-linejoin="round"/>
</g>
<g style="mix-blend-mode:overlay">
<path d="M198.121 146.008L187.21 150.402L186.601 150.645L180.075 153.629L178.629 154.289L178.591 154.353L178.239 154.585L177.23 154.829L175.385 155.605L174.995 156.115L174.158 156.572L173.663 156.962L173.768 157.015L171.894 157.416L170.847 157.843L171.342 158.327L171.427 158.424L170.514 158.791L169.696 159.444L169.677 160.002L167.689 161.108L163.113 163.414L160.487 165.127L158.404 167.088L157.386 170.383L157.462 173.269L159.289 175.736L162.923 177.738L168.174 179.29L174.928 180.388L183.148 181.037L192.528 181.292L203.135 181.146L214.522 180.688L226.851 179.905L239.494 178.911L252.679 177.685L265.665 176.358L278.679 174.893L290.865 173.415L302.481 171.886L312.546 170.428L321.308 168.999L327.748 167.702L332.067 166.51L333.247 165.517" stroke="#F0F1F1" stroke-opacity="0.2" stroke-width="0.599267" stroke-linecap="round" stroke-linejoin="round"/>
</g>
<g style="mix-blend-mode:overlay">
<path d="M1013.19 83.6881L1013.16 83.6319L1011.86 80.6741L1007.99 71.9994L1000.48 61.0116L1007.05 55.7034L1000.65 45.1617L993.471 34.9875L985.032 25.4431L976.214 16.2698L966.434 7.72627L956.959 0" stroke="#F0F1F1" stroke-opacity="0.2" stroke-width="0.599267" stroke-linecap="round" stroke-linejoin="round"/>
</g>
<g style="mix-blend-mode:overlay">
<path d="M118.582 215.788L117.916 215.657L116.67 215.312L113.711 214.379L110.762 214.004L100.44 211.057L89.8329 205.921L83.4876 200.467L81.6991 194.563L81.6896 194.551L75.9912 186.795L82.3936 180.602L84.2772 172.73L97.472 166.582L105.853 158.889L124.366 153.022L137.913 145.727L160.326 140.295L177.697 133.54L196.637 127.036L216.453 120.835L237.002 114.942L257.769 109.364L278.413 104.104L306.267 100.865L333.332 97.8212L353.101 93.4351L378.662 90.841L396.443 86.9535L412.158 83.2946L426.038 79.8158L446.625 78.0088L465.213 76.2881L480.663 74.6687L493.439 73.1092L502.163 71.6284L507.556 69.8964L507.328 68.8318" stroke="#F0F1F1" stroke-opacity="0.2" stroke-width="0.599267" stroke-linecap="round" stroke-linejoin="round"/>
</g>
<g style="mix-blend-mode:overlay">
<path d="M382.144 179.196L383.029 180.336L379.528 182.154L373.773 183.92L365.334 185.877L355.098 187.935L343.017 190.128L329.907 192.358L315.704 194.656L301.121 196.917L286.071 199.162L271.126 201.269L256.218 203.252L241.739 205.003L227.66 206.502L214.199 207.665L201.384 208.456L189.274 208.823L178.02 208.714L167.537 208.118L158.099 206.964L149.557 205.295L142.336 203.027L136.191 200.253L131.71 196.891L128.561 193.07L127.429 188.718L127.895 183.998L130.673 178.844L135.23 173.442L142.241 167.744L151.079 161.918L162.314 155.942L175.252 149.967L190.311 143.98L206.807 138.091L224.968 132.306L244.184 126.694L264.485 121.266L285.395 116.055L306.714 111.081L328.157 106.335L349.295 101.836L370.053 97.5662L389.793 93.5362L408.6 89.7087L425.648 86.0986L446.539 83.9243L460.238 80.7041L472.006 77.6113L480.663 74.6685L486.751 71.8307L488.996 69.1128L487.988 66.4924L482.404 63.9845L472.833 61.5852L457.955 59.3247L441.64 57.574L438.253 57.2066L430.29 56.5394L424.069 56.1682L418.608 55.8533L412.529 55.3172L395.253 54.3988L390.449 54.1364L381.107 53.6603L375.951 53.4803L363.308 52.9705L360.473 52.9255L335.387 52.1345L331.411 52.3894L325.988 53.4466L316.085 54.3463L301.301 55.4297L282.541 56.6743L259.367 58.1401L232.55 59.8233L201.67 61.7914L167.346 64.0557L129.198 66.6911L87.6639 69.7201L42.4668 73.229L0 76.7529" stroke="#F0F1F1" stroke-opacity="0.2" stroke-width="0.599267" stroke-linecap="round" stroke-linejoin="round"/>
</g>
<g style="mix-blend-mode:overlay">
<path d="M481.918 61.9077L485.048 62.7399L492.744 65.3116L496.959 67.8083L496.731 70.4175L493.439 73.1091L486.447 75.9207L477.057 78.8335L464.69 81.885L450.516 85.0678L434.105 88.4229L416.449 91.9356L397.27 95.6506L377.369 99.5494L356.649 103.662L335.691 107.977L314.61 112.505L293.748 117.229L273.418 122.14L253.764 127.219L235.242 132.426L217.795 137.75L202.003 143.11L188.256 148.722L187.305 149.502L175.965 154.019L176.07 154.45L175.994 154.968L175.965 155.673L175.071 156.126L173.891 156.531L173.321 156.977L172.512 157.532L171.389 157.922L170.723 158.259L170.21 158.754L169.744 159.399L171.209 161.281L173.777 162.743L177.706 163.86L183.167 164.598L189.598 165.03L197.256 165.127L205.399 164.996L214.37 164.591L223.274 164.047L232.473 163.313L240.988 162.525L249.179 161.637L255.971 160.782L261.726 159.909L265.342 159.148L267.501 158.297L288.925 159.845L292.226 160.167L314.506 162.912L333.465 165.329L335.644 165.521L344.843 167.283L344.919 167.298L348.943 168.074L349.543 169.067L362.309 173.052L372.365 177.404L379.528 182.154L384.57 187.252L387.338 192.752L388.566 198.608L381.488 200.977L372.622 203.47L362.033 206.113L350.456 208.816L337.918 211.597L325.027 214.356L311.785 217.1L298.638 219.728L285.567 222.229L279.716 223.278" stroke="#F0F1F1" stroke-opacity="0.2" stroke-width="0.599267" stroke-linecap="round" stroke-linejoin="round"/>
</g>
<g style="mix-blend-mode:overlay">
<path d="M1014.13 99.3806L1014.42 98.6158L1015.96 94.6421L1019.03 85.9149L1020.59 73.9L1020.63 62.1625L1018.59 51.0099L1015.7 40.1721L1011.35 29.9454L1006.61 20.0523L1000.78 10.7815L994.793 1.8669L993.223 0" stroke="#F0F1F1" stroke-opacity="0.2" stroke-width="0.599267" stroke-linecap="round" stroke-linejoin="round"/>
</g>
<g style="mix-blend-mode:overlay">
<path d="M129.37 218.161L127.467 217.981L125.621 217.76L124.746 217.576L123.262 217.325L122.111 217.261L111.009 216.099L91.1077 211.871L81.233 209.779L61.1887 205.524L55.5569 203.938L36.1881 198.48L32.3258 197.067L15.9726 191.08L1.03693 183.249L0 182.458" stroke="#F0F1F1" stroke-opacity="0.2" stroke-width="0.599267" stroke-linecap="round" stroke-linejoin="round"/>
</g>
<g style="mix-blend-mode:overlay">
<path d="M500.869 76.333L500.526 76.4042L492.345 78.0987L480.396 79.9394L464.69 81.885L446.539 83.9243L430.471 87.3282L408.6 89.7087L384.713 92.2579L365.268 96.3328L339.392 99.3169L312.803 102.47L291.607 107.407L270.269 112.621L249.064 118.132L228.307 123.92L208.462 129.975L183.785 135.05L166.471 141.697L144.467 147.305L130.911 154.473L112.883 160.52L104.35 168.066L91.6975 174.39L89.3858 182.102L89.871 189.79L93.876 197.19L97.5671 201.22L100.497 204.418L104.426 207.158L107.223 209.104L111.228 211.215L120.56 216.347" stroke="#F0F1F1" stroke-opacity="0.2" stroke-width="0.599267" stroke-linecap="round" stroke-linejoin="round"/>
</g>
<g style="mix-blend-mode:overlay">
<path d="M168.592 160.46L167.841 161.629L163.655 166.63L163.208 167.11L157.462 173.269L151.44 180.306L146.522 187.65L143.145 195.275L142.336 203.027L144.334 210.885L150.156 218.615L152.867 220.748" stroke="#F0F1F1" stroke-opacity="0.2" stroke-width="0.599267" stroke-linecap="round" stroke-linejoin="round"/>
</g>
<g style="mix-blend-mode:overlay">
<path d="M506.139 73.75L504.674 74.466L504.436 74.6572L500.869 76.3329L498.376 77.2101L492.706 78.9383L489.843 79.838L482.385 81.2663L468.876 83.8905L454.825 87.1969L449.669 88.5128L437.083 90.5634L419.645 93.5961L400.219 97.4461L394.407 98.747L380.327 101.371L375.371 102.312L360.197 105.191L355.526 106.106L339.944 109.169L319.785 113.304L299.57 117.592L286.537 120.561L279.611 122.177L261.898 126.586L243.09 131.624L226.528 136.441L211.611 141.24L202.003 144.445L193.27 147.358L181.759 152.415L178.258 154.308L178.02 154.57L177.563 154.855L176.84 155.208L175.385 155.605L173.682 156.493L173.758 156.985L173.796 157.018L172.845 157.644L172.084 158.15L171.361 158.39L170.628 158.567L170.514 158.791L170.448 159.118L170.314 159.2L170.096 159.339L170 159.56L169.62 159.639L168.488 160.572L168.241 162.945L168.897 165.097L171.323 166.844L175.309 168.205L180.893 169.153L187.676 169.749L195.81 169.97L204.724 169.907L214.636 169.528L224.825 168.958L235.584 168.152L246.02 167.249L256.485 166.199L265.969 165.138L274.817 164.021L281.971 162.975L287.726 161.952L291.008 161.071L311.309 164.145L327.748 167.702L341.276 171.65L351.636 176.021L359.722 180.748L365.334 185.876L369.292 191.35L371.471 197.232L372.622 203.47L372.717 210.131L362.852 212.92L351.854 215.814L340.372 218.708L328.442 221.61L326.654 222.03" stroke="#F0F1F1" stroke-opacity="0.2" stroke-width="0.599267" stroke-linecap="round" stroke-linejoin="round"/>
</g>
<g style="mix-blend-mode:overlay">
<path d="M390.23 213.363L388.803 215.754L386.91 219.428" stroke="#F0F1F1" stroke-opacity="0.2" stroke-width="0.599267" stroke-linecap="round" stroke-linejoin="round"/>
</g>
<g style="mix-blend-mode:overlay">
<path d="M506.139 73.75L505.264 74.0049L500.555 75.3657L490.357 77.0639L477.057 78.8334L460.238 80.704L441.202 82.6609L425.648 86.0985L403.111 88.3928L384.713 92.2578L359.674 94.9494L339.392 99.3168L318.501 103.932L297.087 108.824L275.635 113.986L254.43 119.418L233.739 125.112L214.027 131.047L195.353 137.21L178.344 143.538L162.809 150.034L149.49 156.587L137.989 163.211L129.065 169.745L122.102 176.235L117.84 182.476L115.48 188.542L115.661 194.203L117.478 199.556L121.455 204.384L126.687 208.8L133.565 212.605L141.271 215.934L150.156 218.615L159.526 220.789L166.395 221.824" stroke="#F0F1F1" stroke-opacity="0.2" stroke-width="0.599267" stroke-linecap="round" stroke-linejoin="round"/>
</g>
<g style="mix-blend-mode:overlay">
<path d="M136.486 219.99L120.789 218.645L94.247 214.937L74.6594 210.435L65.7456 208.68L42.8569 204.163L37.5009 202.757L16.277 197.187L0 191.623" stroke="#F0F1F1" stroke-opacity="0.2" stroke-width="0.599267" stroke-linecap="round" stroke-linejoin="round"/>
</g>
<g style="mix-blend-mode:overlay">
<path d="M136.153 219.728L120.789 218.645L102.98 216.947L74.9733 214.274L63.8239 212.815L33.8574 208.894L25.7331 207.522L0 203.174" stroke="#F0F1F1" stroke-opacity="0.2" stroke-width="0.599267" stroke-linecap="round" stroke-linejoin="round"/>
</g>
<g style="mix-blend-mode:overlay">
<path d="M372.926 174.833L374.496 175.848L382.62 180.549L388.195 185.483L391.705 190.765L387.338 192.752L380.575 194.9L371.471 197.232L360.825 199.665L348.667 202.221L335.72 204.815L321.964 207.455L307.999 210.045L293.805 212.59L279.792 214.986L265.941 217.22L252.461 219.207L239.38 220.909L226.689 222.27L214.484 223.229L209.585 223.451" stroke="#F0F1F1" stroke-opacity="0.2" stroke-width="0.599267" stroke-linecap="round" stroke-linejoin="round"/>
</g>
<g style="mix-blend-mode:overlay">
<path d="M836.437 17.1507L830.995 16.251L817.344 13.998L805.566 12.0374L802.693 11.6138L774.763 7.49759L749.182 2.1893L742.77 0" stroke="#F0F1F1" stroke-opacity="0.2" stroke-width="0.599267" stroke-linecap="round" stroke-linejoin="round"/>
</g>
<g style="mix-blend-mode:overlay">
<path d="M187.619 148.509L182.425 150.315L171.38 154.068L168.849 155.046L163.541 157.101L151.079 161.918L147.302 163.627L135.515 168.973L131.482 171.155L122.102 176.235L119.543 178.094L112.094 183.496L109.677 186.06L105.216 190.799L102.647 197.865L103.969 204.77L110.201 211.177L113.74 213.157L116.86 214.847" stroke="#F0F1F1" stroke-opacity="0.2" stroke-width="0.599267" stroke-linecap="round" stroke-linejoin="round"/>
</g>
<g style="mix-blend-mode:overlay">
<path d="M187.21 150.402L180.018 153.663L178.829 154.297L178.715 154.361L178.286 154.589L177.763 154.87L176.974 155.268L175.366 155.601L172.826 156.355L171.894 157.416L171.732 158.072L171.294 158.398L171.009 158.859L170.923 158.949L171.856 159.144L176.184 159.939L181.226 160.52L186.981 160.846L193.764 160.88L200.738 160.734L208.262 160.362L223.274 164.047L235.584 168.152L245.031 172.737L252.679 177.686L258.454 183.069L263.306 188.778L267.254 194.874L271.125 201.269L275.073 208.002L279.792 214.986L285.566 222.229L286.489 223.151" stroke="#F0F1F1" stroke-opacity="0.2" stroke-width="0.599267" stroke-linecap="round" stroke-linejoin="round"/>
</g>
<g style="mix-blend-mode:overlay">
<path d="M186.601 150.646L181.759 152.415L177.297 154.241L176.755 154.492" stroke="#F0F1F1" stroke-opacity="0.2" stroke-width="0.599267" stroke-linecap="round" stroke-linejoin="round"/>
</g>
</g>
</svg>
